<svg xmlns="http://www.w3.org/2000/svg" xmlns:xlink="http://www.w3.org/1999/xlink" viewBox="0 0 500 500" width="500" height="500" preserveAspectRatio="xMidYMid meet" style="width: 100%; height: 100%; transform: translate3d(0px, 0px, 0px); content-visibility: visible;"><defs><clipPath id="__lottie_element_234"><rect width="500" height="500" x="0" y="0"></rect></clipPath><g id="__lottie_element_244"><g style="display: block;" transform="matrix(0.9990252256393433,-0.044142547994852066,0.044142547994852066,0.9990252256393433,-14.489501953125,16.460968017578125)" opacity="1"><path fill="#1d8443" fill-opacity="1" d=" M270.4,356.88 C270.4,356.88 136.48,356.98 136.48,356.98 C136.46,332.33 156.43,312.33 181.09,312.31 C181.09,312.31 248.04,312.26 248.04,312.26 C248.04,312.26 250.26,310.04 250.26,310.04 C263.12,297.16 282.65,294.82 300.93,294.82 C311.63,294.82 322.18,297.31 331.75,302.1 C331.75,302.1 341.98,307.21 341.98,307.21 C355.16,313.8 370.44,317.23 385.18,317.23"></path><g opacity="1" transform="matrix(1,0,0,1,261.54998779296875,328.4360046386719)"></g></g></g><g id="__lottie_element_240"><g style="display: block;" transform="matrix(0.9973534345626831,0.07270590960979462,-0.07270590960979462,0.9973534345626831,14.908554077148438,53.71221923828125)" opacity="1"><g opacity="1" transform="matrix(1,0,0,1,249.9709930419922,171.56399536132812)"><path fill="#1d8443" fill-opacity="1" d=" M89.64099884033203,0 C89.64099884033203,-30.94300079345703 64.55799865722656,-56.0260009765625 33.6150016784668,-56.0260009765625 C33.6150016784668,-56.0260009765625 -11.204999923706055,-56.0260009765625 -11.204999923706055,-56.0260009765625 C-18.07200050354004,-69.76000213623047 -32.11000061035156,-78.43599700927734 -47.465999603271484,-78.43599700927734 C-47.465999603271484,-78.43599700927734 -67.23100280761719,-78.43599700927734 -67.23100280761719,-78.43599700927734 C-67.23100280761719,-78.43599700927734 -48.757999420166016,-41.49100112915039 -48.757999420166016,-41.49100112915039 C-54.57899856567383,-36.20199966430664 -59.303001403808594,-29.719999313354492 -62.500999450683594,-22.40999984741211 C-62.500999450683594,-22.40999984741211 -89.64099884033203,-22.40999984741211 -89.64099884033203,-22.40999984741211 C-89.64099884033203,-22.40999984741211 -89.64099884033203,22.40999984741211 -89.64099884033203,22.40999984741211 C-89.64099884033203,22.40999984741211 -62.500999450683594,22.40999984741211 -62.500999450683594,22.40999984741211 C-60.15399932861328,27.774999618530273 -56.96200180053711,32.665000915527344 -53.119998931884766,36.96799850463867 C-47.76599884033203,42.9640007019043 -44.81999969482422,50.70100021362305 -44.81999969482422,58.737998962402344 C-44.81999969482422,58.737998962402344 -44.81999969482422,78.43599700927734 -44.81999969482422,78.43599700927734 C-44.81999969482422,78.43599700927734 -22.40999984741211,78.43599700927734 -22.40999984741211,78.43599700927734 C-22.40999984741211,78.43599700927734 -17.590999603271484,68.7979965209961 -17.590999603271484,68.7979965209961 C-13.678000450134277,60.970001220703125 -5.676000118255615,56.0260009765625 3.075000047683716,56.0260009765625 C3.075000047683716,56.0260009765625 19.334999084472656,56.0260009765625 19.334999084472656,56.0260009765625 C28.086000442504883,56.0260009765625 36.0890007019043,60.970001220703125 40.00199890136719,68.7979965209961 C40.00199890136719,68.7979965209961 44.81999969482422,78.43599700927734 44.81999969482422,78.43599700927734 C44.81999969482422,78.43599700927734 67.23100280761719,78.43599700927734 67.23100280761719,78.43599700927734 C67.23100280761719,78.43599700927734 67.23100280761719,58.665000915527344 67.23100280761719,58.665000915527344 C67.23100280761719,50.64400100708008 70.17500305175781,42.92300033569336 75.50900268554688,36.93199920654297 C84.26699829101562,27.097000122070312 89.64099884033203,14.21399974822998 89.64099884033203,0z"></path></g></g></g><g id="__lottie_element_252"><g style="display: block;" transform="matrix(0.9990252256393433,-0.044142547994852066,0.044142547994852066,0.9990252256393433,-14.489501953125,16.460968017578125)" opacity="1"><path fill="#1d8443" fill-opacity="1" d=" M270.4,356.88 C270.4,356.88 136.48,356.98 136.48,356.98 C136.46,332.33 156.43,312.33 181.09,312.31 C181.09,312.31 248.04,312.26 248.04,312.26 C248.04,312.26 250.26,310.04 250.26,310.04 C263.12,297.16 282.65,294.82 300.93,294.82 C311.63,294.82 322.18,297.31 331.75,302.1 C331.75,302.1 341.98,307.21 341.98,307.21 C355.16,313.8 370.44,317.23 385.18,317.23"></path><g opacity="1" transform="matrix(1,0,0,1,261.54998779296875,328.4360046386719)"></g></g></g><filter id="__lottie_element_258" filterUnits="objectBoundingBox" x="0%" y="0%" width="100%" height="100%"><feComponentTransfer in="SourceGraphic"><feFuncA type="table" tableValues="1.0 0.0"></feFuncA></feComponentTransfer></filter><mask id="__lottie_element_252_2" mask-type="alpha"><g filter="url(#__lottie_element_258)"><rect width="500" height="500" x="0" y="0" fill="#ffffff" opacity="0"></rect><use xlink:href="#__lottie_element_252"></use></g></mask><filter id="__lottie_element_259" filterUnits="objectBoundingBox" x="0%" y="0%" width="100%" height="100%"><feComponentTransfer in="SourceGraphic"><feFuncA type="table" tableValues="1.0 0.0"></feFuncA></feComponentTransfer></filter><mask id="__lottie_element_240_2" mask-type="alpha"><g filter="url(#__lottie_element_259)"><rect width="500" height="500" x="0" y="0" fill="#ffffff" opacity="0"></rect><use xlink:href="#__lottie_element_240"></use></g></mask><filter id="__lottie_element_260" filterUnits="objectBoundingBox" x="0%" y="0%" width="100%" height="100%"><feComponentTransfer in="SourceGraphic"><feFuncA type="table" tableValues="1.0 0.0"></feFuncA></feComponentTransfer></filter><mask id="__lottie_element_244_2" mask-type="alpha"><g filter="url(#__lottie_element_260)"><rect width="500" height="500" x="0" y="0" fill="#ffffff" opacity="0"></rect><use xlink:href="#__lottie_element_244"></use></g></mask></defs><g clip-path="url(#__lottie_element_234)"><g mask="url(#__lottie_element_240_2)" style="display: none;"><g transform="matrix(1,0,0,1,275.5,520.375732421875)" opacity="1"><g opacity="1" transform="matrix(1,0,0,1,0,0)"><path fill="#1d8443" fill-opacity="0" d=" M40.5,-399.5 C40.5,-399.5 40.5,-300.5 40.5,-300.5 C40.5,-300.5 -58.5,-300.5 -58.5,-300.5 C-58.5,-300.5 -58.5,-399.5 -58.5,-399.5 C-58.5,-399.5 40.5,-399.5 40.5,-399.5z"></path></g><g opacity="1" transform="matrix(1,0,0,1,-8,-356)"><path stroke-linecap="round" stroke-linejoin="round" fill-opacity="0" stroke="#1d8443" stroke-opacity="1" stroke-width="16" d=" M0,-26.5 C14.625349998474121,-26.5 26.5,-14.625349998474121 26.5,0 C26.5,14.625349998474121 14.625349998474121,26.5 0,26.5 C-14.625349998474121,26.5 -26.5,14.625349998474121 -26.5,0 C-26.5,-14.625349998474121 -14.625349998474121,-26.5 0,-26.5z"></path></g></g></g><g mask="url(#__lottie_element_244_2)" style="display: block;"><g transform="matrix(0.9973534345626831,0.07270590960979462,-0.07270590960979462,0.9973534345626831,14.908554077148438,53.71221923828125)" opacity="1"><g opacity="1" transform="matrix(1,0,0,1,249.9709930419922,171.56399536132812)"><path stroke-linecap="round" stroke-linejoin="round" fill-opacity="0" stroke="#1d8443" stroke-opacity="1" stroke-width="16" d=" M84.1441879272461,10.903858184814453 C89.00564575195312,-19.56468391418457 68.2470474243164,-48.20408630371094 37.778507232666016,-53.0655403137207 C37.778507232666016,-53.0655403137207 -11.204999923706055,-56.0260009765625 -11.204999923706055,-56.0260009765625 C-18.07200050354004,-69.76000213623047 -23.689910888671875,-74.97237396240234 -35.63697814941406,-77.8319091796875 C-35.63697814941406,-77.8319091796875 -63.26876449584961,-81.09510040283203 -63.26876449584961,-81.09510040283203 C-63.26876449584961,-81.09510040283203 -48.757999420166016,-41.49100112915039 -48.757999420166016,-41.49100112915039 C-54.57899856567383,-36.20199966430664 -59.303001403808594,-29.719999313354492 -62.500999450683594,-22.40999984741211 C-62.500999450683594,-22.40999984741211 -89.48249053955078,-15.38326358795166 -89.48249053955078,-15.38326358795166 C-89.48249053955078,-15.38326358795166 -81.97959899902344,28.65679931640625 -81.97959899902344,28.65679931640625 C-81.97959899902344,28.65679931640625 -62.500999450683594,22.40999984741211 -62.500999450683594,22.40999984741211 C-60.15399932861328,27.774999618530273 -56.96200180053711,32.665000915527344 -53.119998931884766,36.96799850463867 C-47.76599884033203,42.9640007019043 -35.83345413208008,60.58749771118164 -33.70220184326172,68.26736450195312 C-33.70220184326172,68.26736450195312 -28.478839874267578,87.09058380126953 -28.478839874267578,87.09058380126953 C-28.478839874267578,87.09058380126953 -7.064411640167236,81.14818572998047 -7.064411640167236,81.14818572998047 C-7.064411640167236,81.14818572998047 -5.015410900115967,70.66088104248047 -5.015410900115967,70.66088104248047 C-3.351684093475342,62.143096923828125 2.1326727867126465,61.05720520019531 10.494897842407227,58.7371826171875 C10.494897842407227,58.7371826171875 19.334999084472656,56.0260009765625 19.334999084472656,56.0260009765625 C28.086000442504883,56.0260009765625 25.810646057128906,59.59450912475586 29.72364616394043,67.4225082397461 C29.72364616394043,67.4225082397461 34.54233932495117,77.0602035522461 34.54233932495117,77.0602035522461 C34.54233932495117,77.0602035522461 47.15829849243164,76.87581634521484 47.15829849243164,76.87581634521484 C47.15829849243164,76.87581634521484 57.436649322509766,58.4813117980957 57.436649322509766,58.4813117980957 C57.436649322509766,50.46031188964844 58.23307418823242,50.11094284057617 64.42691802978516,45.049842834472656 C74.59544372558594,36.74169158935547 81.91123962402344,24.900529861450195 84.1441879272461,10.903858184814453z"></path></g><g opacity="1" transform="matrix(1,0,0,1,355.8590087890625,149.1540069580078)"><path stroke-linecap="round" stroke-linejoin="round" fill-opacity="0" stroke="#1d8443" stroke-opacity="1" stroke-width="16" d=" M-21.183244705200195,22.387813568115234 C-21.183244705200195,22.387813568115234 -9.05172061920166,24.375144958496094 -9.05172061920166,24.375144958496094 C3.130803108215332,26.3699893951416 16.390609741210938,36.525814056396484 4.931523323059082,44.78501892089844"></path></g><g opacity="1" transform="matrix(1,0,0,1,220.6510009765625,162.99899291992188)"><path stroke-linecap="round" stroke-linejoin="round" fill-opacity="0" stroke="#fff" stroke-opacity="1" stroke-width="16" d=" M0,0 C0,0 0,0 0,0"></path></g></g></g><g mask="url(#__lottie_element_252_2)" style="display: block;"><g transform="matrix(0.9990252256393433,-0.044142547994852066,0.044142547994852066,0.9990252256393433,-14.489501953125,16.460968017578125)" opacity="1"><g opacity="1" transform="matrix(1,0,0,1,261.54998779296875,328.4360046386719)"><path stroke-linecap="round" stroke-linejoin="round" fill-opacity="0" stroke="#fff" stroke-opacity="1" stroke-width="16" d=" M123.62999725341797,56.0260009765625 C123.62999725341797,56.0260009765625 99.50499725341797,78.43599700927734 32.27399826049805,78.43599700927734 C-34.957000732421875,78.43599700927734 -81.98400115966797,33.6150016784668 -81.98400115966797,33.6150016784668 M-82.93327331542969,32.92198181152344 C-82.93327331542969,32.92198181152344 -183.6754150390625,-63.121700286865234 -183.6754150390625,-63.121700286865234 C-166.50555419921875,-80.30534362792969 -138.5308074951172,-79.8983383178711 -121.86798858642578,-62.2223014831543 C-121.86798858642578,-62.2223014831543 -66.84700012207031,-11.204999923706055 -66.84700012207031,-11.204999923706055 M168.4499969482422,78.43599700927734 C168.4499969482422,78.43599700927734 123.62999725341797,78.43599700927734 123.62999725341797,78.43599700927734 C123.62999725341797,78.43599700927734 123.62999725341797,-11.204999923706055 123.62999725341797,-11.204999923706055 C123.62999725341797,-11.204999923706055 168.4499969482422,-11.204999923706055 168.4499969482422,-11.204999923706055 C168.4499969482422,-11.204999923706055 168.4499969482422,78.43599700927734 168.4499969482422,78.43599700927734z"></path></g></g></g><g style="display: block;" transform="matrix(0.9990252256393433,-0.044142547994852066,0.044142547994852066,0.9990252256393433,-14.489501953125,16.460968017578125)" opacity="1"><g opacity="1" transform="matrix(1,0,0,1,261.54998779296875,328.4360046386719)"><path stroke-linecap="round" stroke-linejoin="round" fill-opacity="0" stroke="#fff" stroke-opacity="1" stroke-width="16" d=" M8.846835136413574,28.44312858581543 C8.846835136413574,28.44312858581543 -125.06999206542969,28.543424606323242 -125.06999206542969,28.543424606323242 C-125.0884780883789,3.8899567127227783 -105.11795043945312,-16.109966278076172 -80.46448516845703,-16.128450393676758 C-80.46448516845703,-16.128450393676758 -13.506067276000977,-16.178848266601562 -13.506067276000977,-16.178848266601562 C-13.506067276000977,-16.178848266601562 -11.294062614440918,-18.394338607788086 -11.294062614440918,-18.394338607788086 C1.5695568323135376,-31.277185440063477 21.10099983215332,-33.6150016784668 39.38100051879883,-33.6150016784668 C50.08100128173828,-33.6150016784668 60.63399887084961,-31.124000549316406 70.20500183105469,-26.339000701904297 C70.20500183105469,-26.339000701904297 80.4280014038086,-21.226999282836914 80.4280014038086,-21.226999282836914 C93.61000061035156,-14.63599967956543 108.89199829101562,-11.204999923706055 123.62999725341797,-11.204999923706055"></path></g></g></g></svg>