<svg xmlns="http://www.w3.org/2000/svg" xmlns:xlink="http://www.w3.org/1999/xlink" viewBox="0 0 500 500" width="500" height="500" preserveAspectRatio="xMidYMid meet" style="width: 100%; height: 100%; transform: translate3d(0px, 0px, 0px); content-visibility: visible;"><defs><clipPath id="__lottie_element_274"><rect width="500" height="500" x="0" y="0"></rect></clipPath></defs><g clip-path="url(#__lottie_element_274)"><g transform="matrix(0.9999993443489075,-0.0011679964372888207,0.0011679964372888207,0.9999993443489075,250,274.999267578125)" opacity="1" style="display: block;"><g opacity="1" transform="matrix(1,0,0,1,0,0)"><path stroke-linecap="round" stroke-linejoin="round" fill-opacity="0" stroke="#fff" stroke-opacity="1" stroke-width="16" d=" M-153.0800018310547,-161.9429931640625 C-153.0800018310547,-161.9429931640625 -153.0800018310547,-25.365999221801758 -153.0800018310547,-25.365999221801758 C-153.0800018310547,72.65499877929688 -91.97699737548828,160.28399658203125 0,194.1699981689453 C0,194.1699981689453 0,194.1699981689453 0,194.1699981689453 C0,194.1699981689453 0,194.1699981689453 0,194.1699981689453 C91.97699737548828,160.28399658203125 153.0800018310547,72.65499877929688 153.0800018310547,-25.365999221801758 C153.0800018310547,-25.365999221801758 153.0800018310547,-161.9429931640625 153.0800018310547,-161.9429931640625 C51.027000427246094,-204.91299438476562 -51.027000427246094,-204.91299438476562 -153.0800018310547,-161.9429931640625z"></path></g><g opacity="1" transform="matrix(1,0,0,1,0,0)"><path stroke-linecap="round" stroke-linejoin="round" fill-opacity="0" stroke="#1d8443" stroke-opacity="1" stroke-width="16" d=" M0,141.697998046875 C-63.31399917602539,110.9729995727539 -104.73899841308594,45.952999114990234 -104.73899841308594,-25.363000869750977 C-104.73899841308594,-25.363000869750977 -104.73899841308594,-128.47999572753906 -104.73899841308594,-128.47999572753906 C-69.68699645996094,-139.99899291992188 -34.571998596191406,-145.82899475097656 0,-145.82899475097656 C34.571998596191406,-145.82899475097656 69.68699645996094,-139.99899291992188 104.73899841308594,-128.47999572753906 C104.73899841308594,-128.47999572753906 104.73899841308594,-25.363000869750977 104.73899841308594,-25.363000869750977 C104.73899841308594,45.952999114990234 63.31399917602539,110.9729995727539 0,141.697998046875z"></path></g></g><g transform="matrix(0.9999993443489075,-0.0011679964372888207,0.0011679964372888207,0.9999993443489075,250,274.999267578125)" opacity="1" style="display: block;"><g opacity="1" transform="matrix(1,0,0,1,0,0)"><path stroke-linecap="round" stroke-linejoin="round" fill-opacity="0" stroke="#1d8443" stroke-opacity="1" stroke-width="16" d=" M-48.42499923706055,3.2219998836517334 C-48.42499923706055,3.2219998836517334 -19.940000534057617,31.707000732421875 -19.940000534057617,31.707000732421875 C-19.940000534057617,31.707000732421875 48.42499923706055,-36.65800094604492 48.42499923706055,-36.65800094604492"></path></g></g><g transform="matrix(0.9999993443489075,-0.0011679964372888207,0.0011679964372888207,0.9999993443489075,250,274.999267578125)" opacity="1" style="display: block;"><g opacity="1" transform="matrix(1,0,0,1,0,0)"><path stroke-linecap="round" stroke-linejoin="round" fill-opacity="0" stroke="#fff" stroke-opacity="1" stroke-width="16" d=" M14.536999702453613,-2.7699999809265137 C31.530000686645508,-19.76300048828125 48.42499923706055,-36.65800094604492 48.42499923706055,-36.65800094604492"></path></g></g><g transform="matrix(0.9112889170646667,-0.4117676317691803,0.4117676317691803,0.9112889170646667,167.56541442871094,193.101806640625)" opacity="1" style="display: block;"><g opacity="1" transform="matrix(1,0,0,1,0,0)"><path stroke-linecap="round" stroke-linejoin="miter" fill-opacity="0" stroke-miterlimit="4" stroke="#1d8443" stroke-opacity="1" stroke-width="16" d=" M-14.425000190734863,-174.04299926757812 C-14.425000190734863,-182.0919952392578 -14.425000190734863,-188.46200561523438 -14.425000190734863,-188.46200561523438"></path></g></g><g transform="matrix(0.5152785778045654,-0.8570227026939392,0.8570227026939392,0.5152785778045654,205.75689697265625,156.56491088867188)" opacity="1" style="display: block;"><g opacity="1" transform="matrix(1,0,0,1,0,0)"><path stroke-linecap="round" stroke-linejoin="miter" fill-opacity="0" stroke-miterlimit="4" stroke="#1d8443" stroke-opacity="1" stroke-width="16" d=" M-14.425000190734863,-174.04299926757812 C-14.425000190734863,-182.0919952392578 -14.425000190734863,-188.46200561523438 -14.425000190734863,-188.46200561523438"></path></g></g><g transform="matrix(-0.22943688929080963,-0.9733235836029053,0.9733235836029053,-0.22943688929080963,205.18218994140625,79.21566772460938)" opacity="1" style="display: block;"><g opacity="1" transform="matrix(1,0,0,1,0,0)"><path stroke-linecap="round" stroke-linejoin="miter" fill-opacity="0" stroke-miterlimit="4" stroke="#1d8443" stroke-opacity="1" stroke-width="16" d=" M-14.425000190734863,-174.04299926757812 C-14.425000190734863,-182.0919952392578 -14.425000190734863,-188.46200561523438 -14.425000190734863,-188.46200561523438"></path></g></g></g></svg>