<svg xmlns="http://www.w3.org/2000/svg" xmlns:xlink="http://www.w3.org/1999/xlink" viewBox="0 0 500 500" width="500" height="500" preserveAspectRatio="xMidYMid meet" style="width: 100%; height: 100%; transform: translate3d(0px, 0px, 0px); content-visibility: visible;"><defs><clipPath id="__lottie_element_409"><rect width="500" height="500" x="0" y="0"></rect></clipPath><g id="__lottie_element_414"><g transform="matrix(0.9759549498558044,-0.2179722636938095,0.2179722636938095,0.9759549498558044,221.87164306640625,235.0116729736328)" opacity="1" style="display: block;"><g opacity="1" transform="matrix(1,0,0,1,0,0)"><path fill="rgb(255,112,112)" fill-opacity="1" d=" M-45,110 C-45,110 -79.75,-0.875 -79.75,-0.875 C-79.75,-0.875 -75.125,-28.5 -75.125,-28.5 C-75.125,-28.5 -86.5,-23.125 -86.5,-23.125 C-86.5,-23.125 -91.12200164794922,-42.64699935913086 -110,-39 C-128.8780059814453,-35.35300064086914 -121.59200286865234,-12.91100025177002 -123,-12.5 C-124.40799713134766,-12.08899974822998 -82,120 -82,120"></path></g></g></g><filter id="__lottie_element_421" filterUnits="objectBoundingBox" x="0%" y="0%" width="100%" height="100%"><feComponentTransfer in="SourceGraphic"><feFuncA type="table" tableValues="1.0 0.0"></feFuncA></feComponentTransfer></filter><mask id="__lottie_element_414_2" mask-type="alpha"><g filter="url(#__lottie_element_421)"><rect width="500" height="500" x="0" y="0" fill="#ffffff" opacity="0"></rect><use xlink:href="#__lottie_element_414"></use></g></mask></defs><g clip-path="url(#__lottie_element_409)"><g mask="url(#__lottie_element_414_2)" style="display: block;"><g transform="matrix(1,0,0,1,77.68701171875,32.15299987792969)" opacity="1"><g opacity="1" transform="matrix(1,0,0,1,291.3489990234375,197.92100524902344)"><path stroke-linecap="round" stroke-linejoin="round" fill-opacity="0" stroke="rgb(0,0,0)" stroke-opacity="1" stroke-width="16" d=" M-17.379976272583008,13.2816801071167 C-17.379976272583008,13.2816801071167 -15.436699867248535,13.138915061950684 -15.436699867248535,13.138915061950684 C-3.917494773864746,12.296603202819824 4.731237411499023,2.2730627059936523 3.8896493911743164,-9.237142562866211 C3.047337055206299,-20.755346298217773 -6.96806526184082,-29.413665771484375 -18.48727035522461,-28.571353912353516 C-18.63640785217285,-28.560073852539062 -20.07568359375,-28.455768585205078 -20.22582244873047,-28.43648910522461"></path></g><g opacity="1" transform="matrix(1,0,0,1,184.30799865722656,230.4739990234375)"><path stroke-linecap="round" stroke-linejoin="round" fill-opacity="0" stroke="rgb(0,0,0)" stroke-opacity="1" stroke-width="16" d=" M-24.837974548339844,-5.502175807952881 C-20.845958709716797,1.5340603590011597 -13.046440124511719,6.026281833648682 -4.448786735534668,5.397480010986328 C4.147867202758789,4.768677711486816 11.211380004882812,-0.8090302348136902 14.13774299621582,-8.351688385009766"></path></g><g opacity="1" transform="matrix(1,0,0,1,0,0)"><path stroke-linecap="round" stroke-linejoin="round" fill-opacity="0" stroke="rgb(0,0,0)" stroke-opacity="1" stroke-width="16" d=" M134.91180419921875,197.6886749267578 C134.91180419921875,197.6886749267578 135.816162109375,210.05502319335938 135.816162109375,210.05502319335938"></path></g><g opacity="1" transform="matrix(1,0,0,1,0,0)"><path stroke-linecap="round" stroke-linejoin="round" fill-opacity="0" stroke="rgb(0,0,0)" stroke-opacity="1" stroke-width="16" d=" M216.2979278564453,191.73782348632812 C216.2979278564453,191.73782348632812 217.20228576660156,204.1041717529297 217.20228576660156,204.1041717529297"></path></g><g opacity="1" transform="matrix(1,0,0,1,185.9929962158203,309.031005859375)"><path stroke-linecap="round" stroke-linejoin="round" fill-opacity="0" stroke="rgb(0,0,0)" stroke-opacity="1" stroke-width="16" d=" M29.10700035095215,-19.86400032043457 C47.875,-1.0959999561309814 36.01900100708008,19.86400032043457 36.01900100708008,19.86400032043457 C12.932999610900879,15.128999710083008 0,2.5880000591278076 0,2.5880000591278076 C0,2.5880000591278076 -12.932999610900879,15.128999710083008 -36.01900100708008,19.86400032043457 C-36.01900100708008,19.86400032043457 -47.875,-1.0959999561309814 -29.10700035095215,-19.86400032043457"></path></g><g opacity="1" transform="matrix(1,0,0,1,185.9929962158203,300.16900634765625)"><path stroke-linecap="round" stroke-linejoin="round" fill-opacity="0" stroke="rgb(0,0,0)" stroke-opacity="1" stroke-width="16" d=" M29.091999053955078,-11.451000213623047 C29.104000091552734,-11.300999641418457 29.104000091552734,-11.151000022888184 29.104000091552734,-11.00100040435791 C29.104000091552734,1.3980000019073486 16.076000213623047,11.451000213623047 0.003000000026077032,11.451000213623047 C-16.06999969482422,11.451000213623047 -29.104000091552734,1.3980000019073486 -29.104000091552734,-11.00100040435791 C-29.104000091552734,-11.151000022888184 -29.104000091552734,-11.300999641418457 -29.091999053955078,-11.451000213623047"></path></g><g opacity="1" transform="matrix(1,0,0,1,234.25399780273438,370.8599853515625)"><path stroke-linecap="round" stroke-linejoin="round" fill-opacity="0" stroke="rgb(0,0,0)" stroke-opacity="1" stroke-width="16" d=" M9.656999588012695,-23.503000259399414 C9.656999588012695,-23.503000259399414 9.656999588012695,-7.626999855041504 9.656999588012695,-7.626999855041504 C9.656999588012695,-7.626999855041504 -19.97100067138672,-7.626999855041504 -19.97100067138672,-7.626999855041504 C-35.39899826049805,-7.626999855041504 -47.90599822998047,4.879000186920166 -47.90599822998047,20.30699920654297 C-47.90599822998047,20.30699920654297 -47.90599822998047,23.503000259399414 -47.90599822998047,23.503000259399414 C-47.90599822998047,23.503000259399414 31.61199951171875,23.503000259399414 31.61199951171875,23.503000259399414 C40.611000061035156,23.503000259399414 47.90599822998047,16.20800018310547 47.90599822998047,7.209000110626221 C47.90599822998047,7.209000110626221 47.90599822998047,-23.503000259399414 47.90599822998047,-23.503000259399414 C47.90599822998047,-23.503000259399414 9.656999588012695,-23.503000259399414 9.656999588012695,-23.503000259399414z"></path></g><g opacity="1" transform="matrix(1,0,0,1,0,0)"><path stroke-linecap="round" stroke-linejoin="round" fill-opacity="0" stroke="rgb(0,0,0)" stroke-opacity="1" stroke-width="16" d=" M185.99600219726562,311.6199951171875 C185.99600219726562,311.6199951171875 185.99600219726562,347.15399169921875 185.99600219726562,347.15399169921875"></path></g><g opacity="1" transform="matrix(1,0,0,1,0,0)"><path stroke-linecap="round" stroke-linejoin="round" fill-opacity="0" stroke="rgb(0,0,0)" stroke-opacity="1" stroke-width="16" d=" M243.91099548339844,347.35699462890625 C243.91099548339844,347.35699462890625 243.91099548339844,336.9739990234375 243.91099548339844,336.9739990234375"></path></g><g opacity="1" transform="matrix(1,0,0,1,234.2570037841797,338.9159851074219)"><path stroke-linecap="round" stroke-linejoin="round" fill-opacity="0" stroke="rgb(0,0,0)" stroke-opacity="1" stroke-width="16" d=" M-47.90800094604492,55.446998596191406 C-47.90800094604492,55.446998596191406 31.610000610351562,55.446998596191406 31.610000610351562,55.446998596191406 C40.6150016784668,55.446998596191406 47.90800094604492,48.15299987792969 47.90800094604492,39.154998779296875 C47.90800094604492,39.154998779296875 47.90800094604492,-1.0440000295639038 47.90800094604492,-1.0440000295639038 C47.90800094604492,-25.18000030517578 25.996509552001953,-50.48839569091797 4.624509334564209,-58.414398193359375"></path></g><g opacity="1" transform="matrix(1,0,0,1,138.08999633789062,365.6700134277344)"><path stroke-linecap="round" stroke-linejoin="round" fill-opacity="0" stroke="rgb(0,0,0)" stroke-opacity="1" stroke-width="16" d=" M-48.257999420166016,-28.69300079345703 C-48.257999420166016,-28.69300079345703 -48.257999420166016,28.69300079345703 -48.257999420166016,28.69300079345703 C-48.257999420166016,28.69300079345703 48.257999420166016,28.69300079345703 48.257999420166016,28.69300079345703"></path></g><g opacity="1" transform="matrix(1,0,0,1,186.7169952392578,207.48199462890625)"><path stroke-linecap="round" stroke-linejoin="round" fill-opacity="0" stroke="rgb(0,0,0)" stroke-opacity="1" stroke-width="16" d=" M-102.39664459228516,-21.76447105407715 C-101.29085540771484,-0.7190867066383362 -99.18416595458984,19.58906364440918 -97.43025207519531,33.62273406982422 C-94.01594543457031,60.93911361694336 -70.47486877441406,81.16047668457031 -42.95460510253906,80.45085906982422 C-28.999248504638672,80.09081268310547 -15.065035820007324,79.4218978881836 -1.1552441120147705,78.44284057617188 C12.74933910369873,77.38778686523438 26.63091468811035,76.01846313476562 40.49079513549805,74.34913635253906 C67.8231430053711,71.05696868896484 88.17088317871094,47.61692428588867 87.57513427734375,20.094552993774414 C87.0016098022461,-6.383919715881348 84.01815032958984,-55.819705963134766 76.86174774169922,-85.84815216064453"></path></g><g opacity="1" transform="matrix(1,0,0,1,81.3479995727539,199.89100646972656)"><path stroke-linecap="round" stroke-linejoin="round" fill-opacity="0" stroke="rgb(0,0,0)" stroke-opacity="1" stroke-width="16" d=" M6.123509883880615,24.931129455566406 C6.123509883880615,24.931129455566406 4.180096626281738,25.072895050048828 4.180096626281738,25.072895050048828 C-7.339108467102051,25.915206909179688 -17.354373931884766,17.25688934326172 -18.195960998535156,5.7466840744018555 C-18.706005096435547,-1.2286940813064575 -14.082303047180176,-6.930519104003906 -9.102349281311035,-11.102836608886719"></path></g><g opacity="1" transform="matrix(1,0,0,1,178.71600341796875,110.51499938964844)"><path stroke-linecap="round" stroke-linejoin="round" fill-opacity="0" stroke="rgb(51,204,204)" stroke-opacity="1" stroke-width="16" d=" M-1.9528640508651733,-38.935508728027344 C-3.051194190979004,-39.179962158203125 -8.64444351196289,-41.765037536621094 -17.85504150390625,-43.82743835449219 C-20.14461326599121,-44.340309143066406 -22.574424743652344,-44.801998138427734 -25.093130111694336,-45.16499710083008 C-32.32300567626953,-46.208106994628906 -40.29927444458008,-46.44709396362305 -47.85044860839844,-44.74966812133789 C-47.925865173339844,-44.73115158081055 -48.002140045166016,-44.711769104003906 -48.07841491699219,-44.698387145996094 C-49.026100158691406,-44.47722244262695 -49.965476989746094,-44.23078155517578 -50.897090911865234,-43.948341369628906 C-61.48333740234375,-40.73924255371094 -70.87104797363281,-33.28085708618164 -75.644775390625,-18.299100875854492 C-75.644775390625,-18.299100875854492 -158.3804931640625,-59.06837463378906 -111.50663757324219,78.53977966308594 C-80.7845458984375,76.11270141601562 -63.84017562866211,30.719545364379883 -63.84017562866211,30.719545364379883 C-36.898719787597656,53.71564865112305 14.939349174499512,54.850887298583984 48.75004577636719,38.62078094482422 C82.5617446899414,22.389677047729492 120.40711212158203,-46.18344497680664 106.33126831054688,-59.735591888427734 C92.25542449951172,-73.28773498535156 70.94782257080078,-35.10789489746094 70.94782257080078,-35.10789489746094 C70.94782257080078,-35.10789489746094 82.10343933105469,-71.72651672363281 60.237667083740234,-68.36338806152344 C38.37189483642578,-65.00025939941406 31.421142578125,-32.2256965637207 31.421142578125,-32.2256965637207 C31.421142578125,-32.2256965637207 35.247310638427734,-64.51961517333984 18.848880767822266,-61.99723434448242 C2.4495866298675537,-59.474853515625 -5.135047435760498,-19.544086456298828 -23.424829483032227,-9.40103530883789"></path></g></g></g><g transform="matrix(0.9759549498558044,-0.2179722636938095,0.2179722636938095,0.9759549498558044,44.24766540527344,191.5872039794922)" opacity="1" style="display: block;"><g opacity="1" transform="matrix(1,0,0,1,78.96600341796875,120.0780029296875)"><path stroke-linecap="round" stroke-linejoin="round" fill-opacity="0" stroke="rgb(0,0,0)" stroke-opacity="1" stroke-width="16" d=" M38.96699905395508,68.96900177001953 C38.96699905395508,68.96900177001953 5.421000003814697,-40.77799987792969 5.421000003814697,-40.77799987792969 C5.421000003814697,-40.77799987792969 10.093999862670898,-62.994998931884766 10.093999862670898,-62.994998931884766 C10.602999687194824,-65.4010009765625 8.197999954223633,-67.3740005493164 5.942999839782715,-66.42500305175781 C5.942999839782715,-66.42500305175781 -1.468000054359436,-63.29800033569336 -1.468000054359436,-63.29800033569336 C-1.468000054359436,-63.29800033569336 -1.8049999475479126,-64.39800262451172 -1.8049999475479126,-64.39800262451172 C-4.870999813079834,-74.43399810791016 -15.484999656677246,-80.0780029296875 -25.520999908447266,-77.01200103759766 C-33.70100021362305,-74.51000213623047 -38.96699905395508,-66.98899841308594 -38.96699905395508,-58.856998443603516 C-38.96699905395508,-57.02199935913086 -38.69900131225586,-55.14500045776367 -38.12799835205078,-53.29600143432617 C-38.12799835205078,-53.29600143432617 2.635999917984009,80.0780029296875 2.635999917984009,80.0780029296875"></path></g><g opacity="1" transform="matrix(1,0,0,1,87.90599822998047,154.98500061035156)"><path stroke-linecap="round" stroke-linejoin="round" fill-opacity="0" stroke="rgb(0,0,0)" stroke-opacity="1" stroke-width="16" d=" M-18.257999420166016,5.244999885559082 C-18.257999420166016,5.244999885559082 18.257999420166016,-5.244999885559082 18.257999420166016,-5.244999885559082"></path></g></g></g></svg>