<svg xmlns="http://www.w3.org/2000/svg" xmlns:xlink="http://www.w3.org/1999/xlink" viewBox="0 0 500 500" width="500" height="500" preserveAspectRatio="xMidYMid meet" style="width: 100%; height: 100%; transform: translate3d(0px, 0px, 0px); content-visibility: visible;"><defs><clipPath id="__lottie_element_286"><rect width="500" height="500" x="0" y="0"></rect></clipPath><g id="__lottie_element_292"><g clip-path="url(#__lottie_element_293)" transform="matrix(1,0,0,1,0,0)" opacity="1" style="display: block;"><g transform="matrix(1,0,0,1,524.4550170898438,505.2550048828125)" opacity="1" style="display: block;"><path fill="rgb(255,0,0)" fill-opacity="1" d=" M-93.20999908447266,-141.71200561523438 C-93.20999908447266,-160.5489959716797 -108.48100280761719,-175.82000732421875 -127.31800079345703,-175.82000732421875 C-146.15499877929688,-175.82000732421875 -161.42599487304688,-160.5489959716797 -161.42599487304688,-141.71200561523438 C-161.42599487304688,-135.50599670410156 -159.75999450683594,-129.6909942626953 -156.86300659179688,-124.6780014038086 C-156.86300659179688,-124.6780014038086 -156.87100219726562,-124.6780014038086 -156.87100219726562,-124.6780014038086 C-156.4149932861328,-123.9219970703125 -156.84100341796875,-124.6240005493164 -155.76199340820312,-122.89399719238281 C-155.76199340820312,-122.89399719238281 -125.84300231933594,-74.7229995727539 -125.84300231933594,-74.7229995727539 C-125.84300231933594,-74.7229995727539 -97.71700286865234,-124.73400115966797 -97.71700286865234,-124.73400115966797 C-97.71700286865234,-124.73400115966797 -97.74099731445312,-124.73400115966797 -97.74099731445312,-124.73400115966797 C-94.86399841308594,-129.73500061035156 -93.20999908447266,-135.5279998779297 -93.20999908447266,-141.71200561523438z M-116.7030029296875,-141.71800231933594 C-116.7030029296875,-135.85499572753906 -121.45500183105469,-131.10299682617188 -127.31800079345703,-131.10299682617188 C-133.18099975585938,-131.10299682617188 -137.9340057373047,-135.85499572753906 -137.9340057373047,-141.71800231933594 C-137.9340057373047,-147.58099365234375 -133.18099975585938,-152.33399963378906 -127.31800079345703,-152.33399963378906 C-121.45500183105469,-152.33399963378906 -116.7030029296875,-147.58099365234375 -116.7030029296875,-141.71800231933594z"></path><g opacity="1" transform="matrix(1,0,0,1,0,0)"><path stroke-linecap="round" stroke-linejoin="round" fill-opacity="0" stroke="rgb(51,204,204)" stroke-opacity="1" stroke-width="16" d=" M-93.20999908447266,-141.71200561523438 C-93.20999908447266,-160.5489959716797 -108.48100280761719,-175.82000732421875 -127.31800079345703,-175.82000732421875 C-146.15499877929688,-175.82000732421875 -161.42599487304688,-160.5489959716797 -161.42599487304688,-141.71200561523438 C-161.42599487304688,-135.50599670410156 -159.75999450683594,-129.6909942626953 -156.86300659179688,-124.6780014038086 C-156.86300659179688,-124.6780014038086 -156.87100219726562,-124.6780014038086 -156.87100219726562,-124.6780014038086 C-156.4149932861328,-123.9219970703125 -156.84100341796875,-124.6240005493164 -155.76199340820312,-122.89399719238281 C-155.76199340820312,-122.89399719238281 -125.84300231933594,-74.7229995727539 -125.84300231933594,-74.7229995727539 C-125.84300231933594,-74.7229995727539 -97.71700286865234,-124.73400115966797 -97.71700286865234,-124.73400115966797 C-97.71700286865234,-124.73400115966797 -97.74099731445312,-124.73400115966797 -97.74099731445312,-124.73400115966797 C-94.86399841308594,-129.73500061035156 -93.20999908447266,-135.5279998779297 -93.20999908447266,-141.71200561523438z"></path></g><g opacity="1" transform="matrix(1,0,0,1,0,0)"><path fill="rgb(0,0,0)" fill-opacity="1" d=" M-116.7030029296875,-141.71800231933594 C-116.7030029296875,-135.85499572753906 -121.45500183105469,-131.10299682617188 -127.31800079345703,-131.10299682617188 C-133.18099975585938,-131.10299682617188 -137.9340057373047,-135.85499572753906 -137.9340057373047,-141.71800231933594 C-137.9340057373047,-147.58099365234375 -133.18099975585938,-152.33399963378906 -127.31800079345703,-152.33399963378906 C-121.45500183105469,-152.33399963378906 -116.7030029296875,-147.58099365234375 -116.7030029296875,-141.71800231933594z"></path></g></g><g transform="matrix(1,0,0,1,250,250)" opacity="1" style="display: block;"><path fill="rgb(255,0,0)" fill-opacity="1" d=" M-93.20999908447266,-141.71200561523438 C-93.20999908447266,-160.5489959716797 -108.48100280761719,-175.82000732421875 -127.31800079345703,-175.82000732421875 C-146.15499877929688,-175.82000732421875 -161.42599487304688,-160.5489959716797 -161.42599487304688,-141.71200561523438 C-161.42599487304688,-135.50599670410156 -159.75999450683594,-129.6909942626953 -156.86300659179688,-124.6780014038086 C-156.86300659179688,-124.6780014038086 -156.87100219726562,-124.6780014038086 -156.87100219726562,-124.6780014038086 C-156.4149932861328,-123.9219970703125 -156.84100341796875,-124.6240005493164 -155.76199340820312,-122.89399719238281 C-155.76199340820312,-122.89399719238281 -125.84300231933594,-74.7229995727539 -125.84300231933594,-74.7229995727539 C-125.84300231933594,-74.7229995727539 -97.71700286865234,-124.73400115966797 -97.71700286865234,-124.73400115966797 C-97.71700286865234,-124.73400115966797 -97.74099731445312,-124.73400115966797 -97.74099731445312,-124.73400115966797 C-94.86399841308594,-129.73500061035156 -93.20999908447266,-135.5279998779297 -93.20999908447266,-141.71200561523438z M-116.7030029296875,-141.71800231933594 C-116.7030029296875,-135.85499572753906 -121.45500183105469,-131.10299682617188 -127.31800079345703,-131.10299682617188 C-133.18099975585938,-131.10299682617188 -137.9340057373047,-135.85499572753906 -137.9340057373047,-141.71800231933594 C-137.9340057373047,-147.58099365234375 -133.18099975585938,-152.33399963378906 -127.31800079345703,-152.33399963378906 C-121.45500183105469,-152.33399963378906 -116.7030029296875,-147.58099365234375 -116.7030029296875,-141.71800231933594z"></path><g opacity="1" transform="matrix(1,0,0,1,0,0)"><path stroke-linecap="round" stroke-linejoin="round" fill-opacity="0" stroke="rgb(51,204,204)" stroke-opacity="1" stroke-width="16" d=" M-93.20999908447266,-141.71200561523438 C-93.20999908447266,-160.5489959716797 -108.48100280761719,-175.82000732421875 -127.31800079345703,-175.82000732421875 C-146.15499877929688,-175.82000732421875 -161.42599487304688,-160.5489959716797 -161.42599487304688,-141.71200561523438 C-161.42599487304688,-135.50599670410156 -159.75999450683594,-129.6909942626953 -156.86300659179688,-124.6780014038086 C-156.86300659179688,-124.6780014038086 -156.87100219726562,-124.6780014038086 -156.87100219726562,-124.6780014038086 C-156.4149932861328,-123.9219970703125 -156.84100341796875,-124.6240005493164 -155.76199340820312,-122.89399719238281 C-155.76199340820312,-122.89399719238281 -125.84300231933594,-74.7229995727539 -125.84300231933594,-74.7229995727539 C-125.84300231933594,-74.7229995727539 -97.71700286865234,-124.73400115966797 -97.71700286865234,-124.73400115966797 C-97.71700286865234,-124.73400115966797 -97.74099731445312,-124.73400115966797 -97.74099731445312,-124.73400115966797 C-94.86399841308594,-129.73500061035156 -93.20999908447266,-135.5279998779297 -93.20999908447266,-141.71200561523438z"></path></g><g opacity="1" transform="matrix(1,0,0,1,0,0)"><path fill="rgb(0,0,0)" fill-opacity="1" d=" M-116.7030029296875,-141.71800231933594 C-116.7030029296875,-135.85499572753906 -121.45500183105469,-131.10299682617188 -127.31800079345703,-131.10299682617188 C-133.18099975585938,-131.10299682617188 -137.9340057373047,-135.85499572753906 -137.9340057373047,-141.71800231933594 C-137.9340057373047,-147.58099365234375 -133.18099975585938,-152.33399963378906 -127.31800079345703,-152.33399963378906 C-121.45500183105469,-152.33399963378906 -116.7030029296875,-147.58099365234375 -116.7030029296875,-141.71800231933594z"></path></g></g></g></g><clipPath id="__lottie_element_293"><path d="M0,0 L500,0 L500,500 L0,500z"></path></clipPath><clipPath id="__lottie_element_306"><path d="M0,0 L500,0 L500,500 L0,500z"></path></clipPath><g id="__lottie_element_309"><g transform="matrix(1,0,0,1,250,250)" opacity="1" style="display: block;"><path fill="rgb(255,0,0)" fill-opacity="1" d=" M110.83699798583984,3.250999927520752 C110.83699798583984,62.82400131225586 62.542999267578125,111.11799621582031 2.9700000286102295,111.11799621582031 C-56.60300064086914,111.11799621582031 -104.89600372314453,62.82400131225586 -104.89600372314453,3.250999927520752 C-104.89600372314453,-56.321998596191406 -56.60300064086914,-104.61499786376953 2.9700000286102295,-104.61499786376953 C62.542999267578125,-104.61499786376953 110.83699798583984,-56.321998596191406 110.83699798583984,3.250999927520752z M-104.89600372314453,3.250999927520752 C-104.89600372314453,3.250999927520752 110.83699798583984,3.250999927520752 110.83699798583984,3.250999927520752"></path><g opacity="1" transform="matrix(1,0,0,1,0,0)"><path stroke-linecap="round" stroke-linejoin="round" fill-opacity="0" stroke="rgb(0,0,0)" stroke-opacity="1" stroke-width="16" d=" M110.83699798583984,3.250999927520752 C110.83699798583984,62.82400131225586 62.542999267578125,111.11799621582031 2.9700000286102295,111.11799621582031 C-56.60300064086914,111.11799621582031 -104.89600372314453,62.82400131225586 -104.89600372314453,3.250999927520752 C-104.89600372314453,-56.321998596191406 -56.60300064086914,-104.61499786376953 2.9700000286102295,-104.61499786376953 C62.542999267578125,-104.61499786376953 110.83699798583984,-56.321998596191406 110.83699798583984,3.250999927520752z"></path></g><g opacity="1" transform="matrix(1,0,0,1,0,0)"><path stroke-linecap="round" stroke-linejoin="round" fill-opacity="0" stroke="rgb(0,0,0)" stroke-opacity="1" stroke-width="16" d=" M-104.89600372314453,3.250999927520752 C-104.89600372314453,3.250999927520752 110.83699798583984,3.250999927520752 110.83699798583984,3.250999927520752"></path></g></g></g><mask id="__lottie_element_309_1" mask-type="alpha"><use xlink:href="#__lottie_element_309"></use></mask><filter id="__lottie_element_312" filterUnits="objectBoundingBox" x="0%" y="0%" width="100%" height="100%"><feComponentTransfer in="SourceGraphic"><feFuncA type="table" tableValues="1.0 0.0"></feFuncA></feComponentTransfer></filter><mask id="__lottie_element_292_2" mask-type="alpha"><g filter="url(#__lottie_element_312)"><rect width="500" height="500" x="0" y="0" fill="#ffffff" opacity="0"></rect><use xlink:href="#__lottie_element_292"></use></g></mask></defs><g clip-path="url(#__lottie_element_286)"><g mask="url(#__lottie_element_292_2)" style="display: block;"><g transform="matrix(1,0,0,1,250,250)" opacity="1"><g opacity="1" transform="matrix(1,0,0,1,0,0)"><path stroke-linecap="round" stroke-linejoin="round" fill-opacity="0" stroke="rgb(0,0,0)" stroke-opacity="1" stroke-width="16" d=" M169.56399536132812,3.250999927520752 C169.56399536132812,95.25800323486328 94.97699737548828,169.84500122070312 2.9700000286102295,169.84500122070312 C-89.03700256347656,169.84500122070312 -163.6230010986328,95.25800323486328 -163.6230010986328,3.250999927520752 C-163.6230010986328,-88.75599670410156 -89.03700256347656,-163.3419952392578 2.9700000286102295,-163.3419952392578 C94.97699737548828,-163.3419952392578 169.56399536132812,-88.75599670410156 169.56399536132812,3.250999927520752z"></path></g></g></g><g transform="matrix(1,0,0,1,524.4549560546875,505.2550048828125)" opacity="1" style="display: block;"><g opacity="1" transform="matrix(1,0,0,1,0,0)"><path stroke-linecap="round" stroke-linejoin="round" fill-opacity="0" stroke="rgb(51,204,204)" stroke-opacity="1" stroke-width="16" d=" M-93.20999908447266,-141.71200561523438 C-93.20999908447266,-160.5489959716797 -108.48100280761719,-175.82000732421875 -127.31800079345703,-175.82000732421875 C-146.15499877929688,-175.82000732421875 -161.42599487304688,-160.5489959716797 -161.42599487304688,-141.71200561523438 C-161.42599487304688,-135.50599670410156 -159.75999450683594,-129.6909942626953 -156.86300659179688,-124.6780014038086 C-156.86300659179688,-124.6780014038086 -156.87100219726562,-124.6780014038086 -156.87100219726562,-124.6780014038086 C-156.4149932861328,-123.9219970703125 -156.84100341796875,-124.6240005493164 -155.76199340820312,-122.89399719238281 C-155.76199340820312,-122.89399719238281 -125.84300231933594,-74.7229995727539 -125.84300231933594,-74.7229995727539 C-125.84300231933594,-74.7229995727539 -97.71700286865234,-124.73400115966797 -97.71700286865234,-124.73400115966797 C-97.71700286865234,-124.73400115966797 -97.74099731445312,-124.73400115966797 -97.74099731445312,-124.73400115966797 C-94.86399841308594,-129.73500061035156 -93.20999908447266,-135.5279998779297 -93.20999908447266,-141.71200561523438z"></path></g><g opacity="1" transform="matrix(1,0,0,1,0,0)"><path fill="rgb(0,0,0)" fill-opacity="1" d=" M-116.7030029296875,-141.71800231933594 C-116.7030029296875,-135.85499572753906 -121.45500183105469,-131.10299682617188 -127.31800079345703,-131.10299682617188 C-133.18099975585938,-131.10299682617188 -137.9340057373047,-135.85499572753906 -137.9340057373047,-141.71800231933594 C-137.9340057373047,-147.58099365234375 -133.18099975585938,-152.33399963378906 -127.31800079345703,-152.33399963378906 C-121.45500183105469,-152.33399963378906 -116.7030029296875,-147.58099365234375 -116.7030029296875,-141.71800231933594z"></path></g></g><g transform="matrix(1,0,0,1,250,250)" opacity="1" style="display: block;"><g opacity="1" transform="matrix(1,0,0,1,0,0)"><path stroke-linecap="round" stroke-linejoin="round" fill-opacity="0" stroke="rgb(51,204,204)" stroke-opacity="1" stroke-width="16" d=" M-93.20999908447266,-141.71200561523438 C-93.20999908447266,-160.5489959716797 -108.48100280761719,-175.82000732421875 -127.31800079345703,-175.82000732421875 C-146.15499877929688,-175.82000732421875 -161.42599487304688,-160.5489959716797 -161.42599487304688,-141.71200561523438 C-161.42599487304688,-135.50599670410156 -159.75999450683594,-129.6909942626953 -156.86300659179688,-124.6780014038086 C-156.86300659179688,-124.6780014038086 -156.87100219726562,-124.6780014038086 -156.87100219726562,-124.6780014038086 C-156.4149932861328,-123.9219970703125 -156.84100341796875,-124.6240005493164 -155.76199340820312,-122.89399719238281 C-155.76199340820312,-122.89399719238281 -125.84300231933594,-74.7229995727539 -125.84300231933594,-74.7229995727539 C-125.84300231933594,-74.7229995727539 -97.71700286865234,-124.73400115966797 -97.71700286865234,-124.73400115966797 C-97.71700286865234,-124.73400115966797 -97.74099731445312,-124.73400115966797 -97.74099731445312,-124.73400115966797 C-94.86399841308594,-129.73500061035156 -93.20999908447266,-135.5279998779297 -93.20999908447266,-141.71200561523438z"></path></g><g opacity="1" transform="matrix(1,0,0,1,0,0)"><path fill="rgb(0,0,0)" fill-opacity="1" d=" M-116.7030029296875,-141.71800231933594 C-116.7030029296875,-135.85499572753906 -121.45500183105469,-131.10299682617188 -127.31800079345703,-131.10299682617188 C-133.18099975585938,-131.10299682617188 -137.9340057373047,-135.85499572753906 -137.9340057373047,-141.71800231933594 C-137.9340057373047,-147.58099365234375 -133.18099975585938,-152.33399963378906 -127.31800079345703,-152.33399963378906 C-121.45500183105469,-152.33399963378906 -116.7030029296875,-147.58099365234375 -116.7030029296875,-141.71800231933594z"></path></g></g><g transform="matrix(1,0,0,1,250,250)" opacity="1" style="display: block;"><g opacity="1" transform="matrix(1,0,0,1,0,0)"><path stroke-linecap="round" stroke-linejoin="round" fill-opacity="0" stroke="rgb(0,0,0)" stroke-opacity="1" stroke-width="16" d=" M110.83699798583984,3.250999927520752 C110.83699798583984,62.82400131225586 62.542999267578125,111.11799621582031 2.9700000286102295,111.11799621582031 C-56.60300064086914,111.11799621582031 -104.89600372314453,62.82400131225586 -104.89600372314453,3.250999927520752 C-104.89600372314453,-56.321998596191406 -56.60300064086914,-104.61499786376953 2.9700000286102295,-104.61499786376953 C62.542999267578125,-104.61499786376953 110.83699798583984,-56.321998596191406 110.83699798583984,3.250999927520752z"></path></g><g opacity="1" transform="matrix(1,0,0,1,0,0)"><path stroke-linecap="round" stroke-linejoin="round" fill-opacity="0" stroke="rgb(0,0,0)" stroke-opacity="1" stroke-width="16" d=" M-104.89600372314453,3.250999927520752 C-104.89600372314453,3.250999927520752 110.83699798583984,3.250999927520752 110.83699798583984,3.250999927520752"></path></g></g><g mask="url(#__lottie_element_309_1)" style="display: block;"><g clip-path="url(#__lottie_element_306)" transform="matrix(1,0,0,1,0,0)" opacity="1"><g transform="matrix(1,0,0,1,250,250)" opacity="1" style="display: block;"><g opacity="1" transform="matrix(1,0,0,1,0,0)"><path stroke-linecap="round" stroke-linejoin="round" fill-opacity="0" stroke="rgb(0,0,0)" stroke-opacity="1" stroke-width="16" d=" M2.9700000286102295,111.11799621582031 C2.9700000286102295,111.11799621582031 129.38600158691406,115 129.38600158691406,3.796999931335449 C129.38600158691406,-116 2.9700000286102295,-104.61499786376953 2.9700000286102295,-104.61499786376953"></path></g><g opacity="1" transform="matrix(1,0,0,1,0,0)"><path stroke-linecap="round" stroke-linejoin="round" fill-opacity="0" stroke="rgb(0,0,0)" stroke-opacity="1" stroke-width="16" d=" M3.4679999351501465,-104.61499786376953 C3.4679999351501465,-104.61499786376953 128.052001953125,-116 128.052001953125,3.2090001106262207 C128.052001953125,115 3.4679999351501465,111.11799621582031 3.4679999351501465,111.11799621582031"></path></g></g><g transform="matrix(1,0,0,1,250,250)" opacity="1" style="display: block;"><g opacity="1" transform="matrix(1,0,0,1,0,0)"><path stroke-linecap="round" stroke-linejoin="round" fill-opacity="0" stroke="rgb(0,0,0)" stroke-opacity="1" stroke-width="16" d=" M2.9700000286102295,111.11799621582031 C2.9700000286102295,111.11799621582031 -35.61399841308594,84.30000305175781 -35.61399841308594,3.3989999294281006 C-35.61399841308594,-77.50199890136719 2.9700000286102295,-104.61499786376953 2.9700000286102295,-104.61499786376953"></path></g><g opacity="1" transform="matrix(1,0,0,1,0,0)"><path stroke-linecap="round" stroke-linejoin="round" fill-opacity="0" stroke="rgb(0,0,0)" stroke-opacity="1" stroke-width="16" d=" M3.4679999351501465,-104.61499786376953 C3.4679999351501465,-104.61499786376953 42.051998138427734,-77.7969970703125 42.051998138427734,3.1040000915527344 C42.051998138427734,84.00499725341797 3.4679999351501465,111.11799621582031 3.4679999351501465,111.11799621582031"></path></g></g></g></g></g></svg>