<svg xmlns="http://www.w3.org/2000/svg" xmlns:xlink="http://www.w3.org/1999/xlink" viewBox="0 0 500 500" width="500" height="500" preserveAspectRatio="xMidYMid meet" style="width: 100%; height: 100%; transform: translate3d(0px, 0px, 0px); content-visibility: visible;"><defs><clipPath id="__lottie_element_396"><rect width="500" height="500" x="0" y="0"></rect></clipPath><g id="__lottie_element_405"><g transform="matrix(1,0,0,1,296,250)" opacity="1" style="display: block;"><path fill="rgb(255,0,0)" fill-opacity="1" d=" M-67.09600067138672,68.99400329589844 C-67.09600067138672,85.83699798583984 -80.75,99.49099731445312 -97.59300231933594,99.49099731445312 C-114.43599700927734,99.49099731445312 -128.08999633789062,85.83699798583984 -128.08999633789062,68.99400329589844 C-128.08999633789062,52.1510009765625 -114.43599700927734,38.49700164794922 -97.59300231933594,38.49700164794922 C-80.75,38.49700164794922 -67.09600067138672,52.1510009765625 -67.09600067138672,68.99400329589844z M128.08599853515625,68.99400329589844 C128.08599853515625,85.83699798583984 114.43199920654297,99.49099731445312 97.58899688720703,99.49099731445312 C80.74600219726562,99.49099731445312 67.09200286865234,85.83699798583984 67.09200286865234,68.99400329589844 C67.09200286865234,52.1510009765625 80.74600219726562,38.49700164794922 97.58899688720703,38.49700164794922 C114.43199920654297,38.49700164794922 128.08599853515625,52.1510009765625 128.08599853515625,68.99400329589844z"></path><g opacity="1" transform="matrix(1,0,0,1,0,0)"><path stroke-linecap="butt" stroke-linejoin="round" fill-opacity="0" stroke="rgb(0,0,0)" stroke-opacity="1" stroke-width="16" d=" M-67.09600067138672,68.99400329589844 C-67.09600067138672,85.83699798583984 -80.75,99.49099731445312 -97.59300231933594,99.49099731445312 C-114.43599700927734,99.49099731445312 -128.08999633789062,85.83699798583984 -128.08999633789062,68.99400329589844 C-128.08999633789062,52.1510009765625 -114.43599700927734,38.49700164794922 -97.59300231933594,38.49700164794922 C-80.75,38.49700164794922 -67.09600067138672,52.1510009765625 -67.09600067138672,68.99400329589844z"></path></g><g opacity="1" transform="matrix(1,0,0,1,0,0)"><path stroke-linecap="butt" stroke-linejoin="round" fill-opacity="0" stroke="rgb(0,0,0)" stroke-opacity="1" stroke-width="16" d=" M128.08599853515625,68.99400329589844 C128.08599853515625,85.83699798583984 114.43199920654297,99.49099731445312 97.58899688720703,99.49099731445312 C80.74600219726562,99.49099731445312 67.09200286865234,85.83699798583984 67.09200286865234,68.99400329589844 C67.09200286865234,52.1510009765625 80.74600219726562,38.49700164794922 97.58899688720703,38.49700164794922 C114.43199920654297,38.49700164794922 128.08599853515625,52.1510009765625 128.08599853515625,68.99400329589844z"></path></g></g></g><filter id="__lottie_element_408" filterUnits="objectBoundingBox" x="0%" y="0%" width="100%" height="100%"><feComponentTransfer in="SourceGraphic"><feFuncA type="table" tableValues="1.0 0.0"></feFuncA></feComponentTransfer></filter><mask id="__lottie_element_405_2" mask-type="alpha"><g filter="url(#__lottie_element_408)"><rect width="500" height="500" x="0" y="0" fill="#ffffff" opacity="0"></rect><use xlink:href="#__lottie_element_405"></use></g></mask></defs><g clip-path="url(#__lottie_element_396)"><g transform="matrix(1,0,0,1,296,250)" opacity="1" style="display: block;"><g opacity="1" transform="matrix(1,0,0,1,0,0)"><path stroke-linecap="butt" stroke-linejoin="round" fill-opacity="0" stroke="rgb(0,0,0)" stroke-opacity="1" stroke-width="16" d=" M-67.09600067138672,68.99400329589844 C-67.09600067138672,85.83699798583984 -80.75,99.49099731445312 -97.59300231933594,99.49099731445312 C-114.43599700927734,99.49099731445312 -128.08999633789062,85.83699798583984 -128.08999633789062,68.99400329589844 C-128.08999633789062,52.1510009765625 -114.43599700927734,38.49700164794922 -97.59300231933594,38.49700164794922 C-80.75,38.49700164794922 -67.09600067138672,52.1510009765625 -67.09600067138672,68.99400329589844z"></path></g><g opacity="1" transform="matrix(1,0,0,1,0,0)"><path stroke-linecap="butt" stroke-linejoin="round" fill-opacity="0" stroke="rgb(0,0,0)" stroke-opacity="1" stroke-width="16" d=" M128.08599853515625,68.99400329589844 C128.08599853515625,85.83699798583984 114.43199920654297,99.49099731445312 97.58899688720703,99.49099731445312 C80.74600219726562,99.49099731445312 67.09200286865234,85.83699798583984 67.09200286865234,68.99400329589844 C67.09200286865234,52.1510009765625 80.74600219726562,38.49700164794922 97.58899688720703,38.49700164794922 C114.43199920654297,38.49700164794922 128.08599853515625,52.1510009765625 128.08599853515625,68.99400329589844z"></path></g></g><g mask="url(#__lottie_element_405_2)" style="display: block;"><g transform="matrix(0.9981630444526672,0.06058458983898163,-0.06058458983898163,0.9981630444526672,300.1800842285156,250.02658081054688)" opacity="1"><g opacity="1" transform="matrix(1,0,0,1,0,0)"><path stroke-linecap="round" stroke-linejoin="round" fill-opacity="0" stroke="rgb(51,204,204)" stroke-opacity="1" stroke-width="16" d=" M183.05099487304688,20.198999404907227 C183.05099487304688,20.198999404907227 160.10899353027344,20.198999404907227 160.10899353027344,20.198999404907227"></path></g><g opacity="1" transform="matrix(1,0,0,1,0,0)"><path stroke-linecap="butt" stroke-linejoin="round" fill-opacity="0" stroke="rgb(0,0,0)" stroke-opacity="1" stroke-width="16" d=" M-128.08999633789062,68.99400329589844 C-128.08999633789062,68.99400329589844 -160.87399291992188,68.99400329589844 -160.87399291992188,68.99400329589844 C-173.5070037841797,68.99400329589844 -183.7469940185547,58.75400161743164 -183.7469940185547,46.12099838256836 C-183.7469940185547,-36.22200012207031 -183.8719940185547,-12.520000457763672 -183.26699829101562,-60.9010009765625 C-183.11500549316406,-73.4280014038086 -172.91299438476562,-83.49099731445312 -160.3939971923828,-83.49099731445312 C-160.3939971923828,-83.49099731445312 36.595001220703125,-83.49099731445312 36.595001220703125,-83.49099731445312 C36.595001220703125,-83.49099731445312 54.893001556396484,-22.496999740600586 54.893001556396484,-22.496999740600586 C54.893001556396484,-22.496999740600586 134.6580047607422,-22.496999740600586 134.6580047607422,-22.496999740600586 C134.6580047607422,-22.496999740600586 172.3070068359375,-16.398000717163086 172.3070068359375,-16.398000717163086 C172.3070068359375,-16.398000717163086 181.9669952392578,15.708000183105469 181.9669952392578,15.708000183105469 C189.67300415039062,41.30699920654297 171.39599609375,68.05999755859375 144.4250030517578,68.97100067138672 C143.3719940185547,69.00399780273438 143.99600219726562,68.99400329589844 128.08599853515625,68.99400329589844 C128.08599853515625,68.99400329589844 -128.08999633789062,68.99400329589844 -128.08999633789062,68.99400329589844z"></path></g><g opacity="1" transform="matrix(1,0,0,1,0,0)"><path stroke-linecap="butt" stroke-linejoin="round" fill-opacity="0" stroke="rgb(0,0,0)" stroke-opacity="1" stroke-width="16" d=" M134.6580047607422,-22.496999740600586 C134.6580047607422,-22.496999740600586 54.893001556396484,-22.496999740600586 54.893001556396484,-22.496999740600586 C54.893001556396484,-22.496999740600586 36.595001220703125,-83.49099731445312 36.595001220703125,-83.49099731445312 C36.595001220703125,-83.49099731445312 79.29100036621094,-83.49099731445312 79.29100036621094,-83.49099731445312 C97.99400329589844,-83.49099731445312 114.81999969482422,-72.10099792480469 121.76599884033203,-54.733001708984375 C121.76599884033203,-54.733001708984375 134.6580047607422,-22.496999740600586 134.6580047607422,-22.496999740600586z"></path></g><g opacity="1" transform="matrix(1,0,0,1,0,0)"><path stroke-linecap="round" stroke-linejoin="round" fill-opacity="0" stroke="rgb(0,0,0)" stroke-opacity="1" stroke-width="16" d=" M54.893001556396484,1.9010000228881836 C54.893001556396484,1.9010000228881836 54.893001556396484,-22.496999740600586 54.893001556396484,-22.496999740600586"></path></g><g opacity="1" transform="matrix(1,0,0,1,0,0)"><path stroke-linecap="round" stroke-linejoin="round" fill-opacity="0" stroke="rgb(0,0,0)" stroke-opacity="1" stroke-width="16" d=" M-183.75100708007812,20.198999404907227 C-183.75100708007812,20.198999404907227 -158.58700561523438,20.198999404907227 -158.58700561523438,20.198999404907227"></path></g><g opacity="1" transform="matrix(1,0,0,1,0,0)"><path stroke-linecap="round" stroke-linejoin="round" fill-opacity="0" stroke="rgb(0,0,0)" stroke-opacity="1" stroke-width="16" d=" M-134.18899536132812,-46.89500045776367 C-134.18899536132812,-46.89500045776367 -134.18899536132812,-22.496999740600586 -134.18899536132812,-22.496999740600586"></path></g><g opacity="1" transform="matrix(1,0,0,1,0,0)"><path stroke-linecap="round" stroke-linejoin="round" fill-opacity="0" stroke="rgb(51,204,204)" stroke-opacity="1" stroke-width="16" d=" M-85.39399719238281,-46.89500045776367 C-85.39399719238281,-46.89500045776367 -85.39399719238281,-22.496999740600586 -85.39399719238281,-22.496999740600586"></path></g><g opacity="1" transform="matrix(1,0,0,1,0,0)"><path stroke-linecap="round" stroke-linejoin="round" fill-opacity="0" stroke="rgb(0,0,0)" stroke-opacity="1" stroke-width="16" d=" M-36.597999572753906,-46.89500045776367 C-36.597999572753906,-46.89500045776367 -36.597999572753906,-22.496999740600586 -36.597999572753906,-22.496999740600586"></path></g></g></g><g transform="matrix(1,0,0,1,264,212)" opacity="1" style="display: block;"><g opacity="1" transform="matrix(1,0,0,1,0,0)"><path stroke-linecap="round" stroke-linejoin="miter" fill-opacity="0" stroke-miterlimit="4" stroke="rgb(51,204,204)" stroke-opacity="1" stroke-width="16" d=" M79.12899780273438,-140 C37.90399932861328,-140 -6,-140 -6,-140"></path></g></g><g transform="matrix(1,0,0,1,158,410)" opacity="1" style="display: block;"><g opacity="1" transform="matrix(1,0,0,1,0,0)"><path stroke-linecap="round" stroke-linejoin="miter" fill-opacity="0" stroke-miterlimit="4" stroke="rgb(51,204,204)" stroke-opacity="1" stroke-width="16" d=" M150,-140 C150,-140 106.74700164794922,-140 65.79100036621094,-140"></path></g></g><g transform="matrix(1,0,0,1,48,302)" opacity="1" style="display: block;"><g opacity="1" transform="matrix(1,0,0,1,0,0)"><path stroke-linecap="round" stroke-linejoin="miter" fill-opacity="0" stroke-miterlimit="4" stroke="rgb(51,204,204)" stroke-opacity="1" stroke-width="16" d=" M129.83200073242188,-140 C95.56199645996094,-140 27.308000564575195,-140 2.9200000762939453,-140"></path></g></g><g transform="matrix(1,0,0,1,319,266)" opacity="1" style="display: block;"><g opacity="1" transform="matrix(1,0,0,1,0,0)"><path stroke-linecap="round" stroke-linejoin="miter" fill-opacity="0" stroke-miterlimit="4" stroke="rgb(51,204,204)" stroke-opacity="1" stroke-width="16" d=" M150,-140 C150,-140 134.9199981689453,-140 114.13700103759766,-140"></path></g></g><g transform="matrix(1,0,0,1,144,194)" opacity="1" style="display: none;"><g opacity="1" transform="matrix(1,0,0,1,0,0)"><path stroke-linecap="round" stroke-linejoin="miter" fill-opacity="0" stroke-miterlimit="4" stroke="rgb(51,204,204)" stroke-opacity="1" stroke-width="16" d="M0 0"></path></g></g><g transform="matrix(1,0,0,1,286,330)" opacity="1" style="display: none;"><g opacity="1" transform="matrix(1,0,0,1,0,0)"><path stroke-linecap="round" stroke-linejoin="miter" fill-opacity="0" stroke-miterlimit="4" stroke="rgb(51,204,204)" stroke-opacity="1" stroke-width="16" d=" M19.582000732421875,-140 C4.289000034332275,-140 -6,-140 -6,-140"></path></g></g><g transform="matrix(1,0,0,1.0704200267791748,288,408)" opacity="1" style="display: none;"><g opacity="1" transform="matrix(1,0,0,1,0,0)"><path stroke-linecap="round" stroke-linejoin="miter" fill-opacity="0" stroke-miterlimit="4" stroke="rgb(51,204,204)" stroke-opacity="1" stroke-width="16" d="M0 0"></path></g></g><g transform="matrix(1,0,0,1.225350022315979,28,346)" opacity="1" style="display: none;"><g opacity="1" transform="matrix(1,0,0,1,0,0)"><path stroke-linecap="round" stroke-linejoin="miter" fill-opacity="0" stroke-miterlimit="4" stroke="rgb(51,204,204)" stroke-opacity="1" stroke-width="16" d="M0 0"></path></g></g></g></svg>