<svg xmlns="http://www.w3.org/2000/svg" xmlns:xlink="http://www.w3.org/1999/xlink" viewBox="0 0 500 500" width="500" height="500" preserveAspectRatio="xMidYMid meet" style="width: 100%; height: 100%; transform: translate3d(0px, 0px, 0px); content-visibility: visible;"><defs><clipPath id="__lottie_element_47"><rect width="500" height="500" x="0" y="0"></rect></clipPath></defs><g clip-path="url(#__lottie_element_47)"><g style="display: block;" transform="matrix(0.8987940549850464,-0.4383711516857147,0.4383711516857147,0.8987940549850464,-102.29705810546875,134.89427185058594)" opacity="1"><g opacity="1" transform="matrix(1,0,0,1,250,250)"><path stroke-linecap="round" stroke-linejoin="round" fill-opacity="0" stroke="rgb(51,204,204)" stroke-opacity="1" stroke-width="16" d=" M0,-187.4250030517578 C-103.08200073242188,-187.4250030517578 -187.4250030517578,-103.08200073242188 -187.4250030517578,0 C-187.4250030517578,103.08200073242188 -103.08200073242188,187.4250030517578 0,187.4250030517578 C103.08200073242188,187.4250030517578 187.4250030517578,103.08200073242188 187.4250030517578,0 C187.4250030517578,-103.08200073242188 103.08200073242188,-187.4250030517578 0,-187.4250030517578z M76.16600036621094,34.37900161743164 C76.16600036621094,34.37900161743164 137.1269989013672,28.283000946044922 137.1269989013672,28.283000946044922 C125.9209976196289,82.9020004272461 82.9020004272461,125.9209976196289 28.283000946044922,137.1269989013672 C28.283000946044922,137.1269989013672 34.37900161743164,76.16600036621094 34.37900161743164,76.16600036621094 C36.5890007019043,54.06800079345703 54.06700134277344,36.5890007019043 76.16600036621094,34.37900161743164z M-34.37900161743164,76.16600036621094 C-34.37900161743164,76.16600036621094 -28.283000946044922,137.1269989013672 -28.283000946044922,137.1269989013672 C-82.9020004272461,125.9209976196289 -125.9209976196289,82.9020004272461 -137.1269989013672,28.283000946044922 C-137.1269989013672,28.283000946044922 -76.16600036621094,34.37900161743164 -76.16600036621094,34.37900161743164 C-54.06700134277344,36.5890007019043 -36.5890007019043,54.06800079345703 -34.37900161743164,76.16600036621094z M-137.1269989013672,-28.283000946044922 C-124.0469970703125,-92.03700256347656 -67.62300109863281,-139.98599243164062 0,-139.98599243164062 C67.62300109863281,-139.98599243164062 124.0469970703125,-92.03700256347656 137.1269989013672,-28.283000946044922 C137.1269989013672,-28.283000946044922 71.27200317382812,-34.86800003051758 71.27200317382812,-34.86800003051758 C61.53300094604492,-35.84199905395508 53.45399856567383,-42.82500076293945 51.08000183105469,-52.31999969482422 C48.48400115966797,-62.70600128173828 39.152000427246094,-69.99299621582031 28.445999145507812,-69.99299621582031 C28.445999145507812,-69.99299621582031 -28.445999145507812,-69.99299621582031 -28.445999145507812,-69.99299621582031 C-39.152000427246094,-69.99299621582031 -48.48400115966797,-62.70600128173828 -51.08000183105469,-52.31999969482422 C-53.45399856567383,-42.82500076293945 -61.53300094604492,-35.84199905395508 -71.27200317382812,-34.86800003051758 C-71.27200317382812,-34.86800003051758 -137.1269989013672,-28.283000946044922 -137.1269989013672,-28.283000946044922z"></path></g><g opacity="1" transform="matrix(1,0,0,1,250,250)"><path stroke-linecap="round" stroke-linejoin="round" fill-opacity="0" stroke="rgb(0,0,0)" stroke-opacity="1" stroke-width="16" d=" M23.33099937438965,0 C23.33099937438965,12.885000228881836 12.885000228881836,23.33099937438965 0,23.33099937438965 C-12.885000228881836,23.33099937438965 -23.33099937438965,12.885000228881836 -23.33099937438965,0 C-23.33099937438965,-12.885000228881836 -12.885000228881836,-23.33099937438965 0,-23.33099937438965 C12.885000228881836,-23.33099937438965 23.33099937438965,-12.885000228881836 23.33099937438965,0z"></path></g></g></g></svg>