<svg xmlns="http://www.w3.org/2000/svg" xmlns:xlink="http://www.w3.org/1999/xlink" viewBox="0 0 500 500" width="500" height="500" preserveAspectRatio="xMidYMid meet" style="width: 100%; height: 100%; transform: translate3d(0px, 0px, 0px); content-visibility: visible;"><defs><clipPath id="__lottie_element_143"><rect width="500" height="500" x="0" y="0"></rect></clipPath><g id="__lottie_element_151"><g transform="matrix(1,0,0,1,102.35621643066406,245.2969970703125)" opacity="1" style="display: block;"><path fill="rgb(255,0,0)" fill-opacity="1" d=" M57.7,104.95 C83.73,104.95 104.95,83.73 104.95,57.7 C104.95,31.68 83.73,10.45 57.7,10.45 C31.68,10.45 10.45,31.68 10.45,57.7 C10.45,83.73 31.68,104.95 57.7,104.95z M236.2,104.95 C262.23,104.95 283.45,83.73 283.45,57.7 C283.45,31.68 262.23,10.45 236.2,10.45 C210.18,10.45 188.95,31.68 188.95,57.7 C188.95,83.73 210.18,104.95 236.2,104.95z"></path><g opacity="1" transform="matrix(1,0,0,1,57.70199966430664,57.702999114990234)"></g><g opacity="1" transform="matrix(1,0,0,1,236.20199584960938,57.702999114990234)"></g></g></g><filter id="__lottie_element_155" filterUnits="objectBoundingBox" x="0%" y="0%" width="100%" height="100%"><feComponentTransfer in="SourceGraphic"><feFuncA type="table" tableValues="1.0 0.0"></feFuncA></feComponentTransfer></filter><mask id="__lottie_element_151_2" mask-type="alpha"><g filter="url(#__lottie_element_155)"><rect width="500" height="500" x="0" y="0" fill="#ffffff" opacity="0"></rect><use xlink:href="#__lottie_element_151"></use></g></mask></defs><g clip-path="url(#__lottie_element_143)"><g mask="url(#__lottie_element_151_2)" style="display: block;"><g transform="matrix(0.9991132020950317,0.042104605585336685,-0.042104605585336685,0.9991132020950317,71.55888366699219,137.48056030273438)" opacity="1"><g opacity="1" transform="matrix(1,0,0,1,0,0)"><path stroke-linecap="round" stroke-linejoin="round" fill-opacity="0" stroke="rgb(0,0,0)" stroke-opacity="1" stroke-width="16" d=" M13.95199966430664,147.82699584960938 C13.95199966430664,147.82699584960938 349.9519958496094,147.82699584960938 349.9519958496094,147.82699584960938"></path></g><g opacity="1" transform="matrix(1,0,0,1,225.32400512695312,45.01499938964844)"><path stroke-linecap="round" stroke-linejoin="round" fill-opacity="0" stroke="rgb(0,0,0)" stroke-opacity="1" stroke-width="16" d=" M50.37200164794922,31.062000274658203 C50.37200164794922,31.062000274658203 -50.37300109863281,31.062000274658203 -50.37300109863281,31.062000274658203 C-50.37300109863281,31.062000274658203 -50.37300109863281,-31.062000274658203 -50.37300109863281,-31.062000274658203"></path></g><g opacity="1" transform="matrix(1,0,0,1,181.95199584960938,94.88999938964844)"><path stroke-linecap="round" stroke-linejoin="round" fill-opacity="0" stroke="rgb(0,0,0)" stroke-opacity="1" stroke-width="16" d=" M-171.5,84.43800354003906 C-171.5,84.43800354003906 -171.5,23.187999725341797 -171.5,23.187999725341797 C-171.5,6.039999961853027 -160.18499755859375,-6.442999839782715 -143.5,-11.812000274658203 C-143.5,-11.812000274658203 -121.74500274658203,-18.812000274658203 -121.74500274658203,-18.812000274658203 C-121.74500274658203,-18.812000274658203 -104.24500274658203,-63.4379997253418 -104.24500274658203,-63.4379997253418 C-98.99099731445312,-76.83699798583984 -90.26799774169922,-84.43800354003906 -72.74500274658203,-84.43800354003906 C-72.74500274658203,-84.43800354003906 44.85499954223633,-84.43800354003906 44.85499954223633,-84.43800354003906 C44.85499954223633,-84.43800354003906 93.74500274658203,-18.812000274658203 93.74500274658203,-18.812000274658203 C93.74500274658203,-18.812000274658203 143.5,-11.812000274658203 143.5,-11.812000274658203 C160.8560028076172,-9.369999885559082 171.5,6.040999889373779 171.5,23.187999725341797 C171.5,23.187999725341797 171.5,84.43800354003906 171.5,84.43800354003906 C171.5,84.43800354003906 -171.5,84.43800354003906 -171.5,84.43800354003906z"></path></g><g opacity="1" transform="matrix(1,0,0,1,101.83000183105469,45.01499938964844)"><path stroke-linecap="round" stroke-linejoin="round" fill-opacity="0" stroke="rgb(0,0,0)" stroke-opacity="1" stroke-width="16" d=" M-41.624000549316406,31.062000274658203 C-41.624000549316406,31.062000274658203 41.624000549316406,31.062000274658203 41.624000549316406,31.062000274658203 C41.624000549316406,31.062000274658203 41.624000549316406,-31.062000274658203 41.624000549316406,-31.062000274658203"></path></g><g opacity="1" transform="matrix(1,0,0,1,0,0)"><path stroke-linecap="round" stroke-linejoin="round" fill-opacity="0" stroke="rgb(51,204,204)" stroke-opacity="1" stroke-width="16" d=" M174.95199584960938,107.5770034790039 C174.95199584960938,107.5770034790039 188.95199584960938,107.5770034790039 188.95199584960938,107.5770034790039"></path></g></g></g><g transform="matrix(1,0,0,1,102.35621643066406,245.2969970703125)" opacity="1" style="display: block;"><g opacity="1" transform="matrix(1,0,0,1,57.70199966430664,57.702999114990234)"><path stroke-linecap="round" stroke-linejoin="round" fill-opacity="0" stroke="rgb(0,0,0)" stroke-opacity="1" stroke-width="16" d=" M0,15.75 C8.675000190734863,15.75 15.75,8.675000190734863 15.75,0 C15.75,-8.675000190734863 8.675000190734863,-15.75 0,-15.75 C-8.675000190734863,-15.75 -15.75,-8.675000190734863 -15.75,0 C-15.75,8.675000190734863 -8.675000190734863,15.75 0,15.75z"></path></g><g opacity="1" transform="matrix(1,0,0,1,236.20199584960938,57.702999114990234)"><path stroke-linecap="round" stroke-linejoin="round" fill-opacity="0" stroke="rgb(0,0,0)" stroke-opacity="1" stroke-width="16" d=" M0,15.75 C8.675000190734863,15.75 15.75,8.675000190734863 15.75,0 C15.75,-8.675000190734863 8.675000190734863,-15.75 0,-15.75 C-8.675000190734863,-15.75 -15.75,-8.675000190734863 -15.75,0 C-15.75,8.675000190734863 -8.675000190734863,15.75 0,15.75z"></path></g><g opacity="1" transform="matrix(1,0,0,1,57.70199966430664,57.702999114990234)"><path stroke-linecap="round" stroke-linejoin="round" fill-opacity="0" stroke="rgb(51,204,204)" stroke-opacity="1" stroke-width="16" d=" M0,47.250999450683594 C26.024999618530273,47.250999450683594 47.25,26.024999618530273 47.25,0.0010000000474974513 C47.25,-26.02400016784668 26.024999618530273,-47.250999450683594 0,-47.250999450683594 C-26.024999618530273,-47.250999450683594 -47.25,-26.02400016784668 -47.25,0.0010000000474974513 C-47.25,26.024999618530273 -26.024999618530273,47.250999450683594 0,47.250999450683594z"></path></g><g opacity="1" transform="matrix(1,0,0,1,236.20199584960938,57.702999114990234)"><path stroke-linecap="round" stroke-linejoin="round" fill-opacity="0" stroke="rgb(51,204,204)" stroke-opacity="1" stroke-width="16" d=" M0,47.250999450683594 C26.024999618530273,47.250999450683594 47.25,26.024999618530273 47.25,0.0010000000474974513 C47.25,-26.02400016784668 26.024999618530273,-47.250999450683594 0,-47.250999450683594 C-26.024999618530273,-47.250999450683594 -47.25,-26.02400016784668 -47.25,0.0010000000474974513 C-47.25,26.024999618530273 -26.024999618530273,47.250999450683594 0,47.250999450683594z"></path></g></g><g transform="matrix(1,0,0,1,264,272)" opacity="1" style="display: block;"><g opacity="1" transform="matrix(1,0,0,1,0,0)"><path stroke-linecap="round" stroke-linejoin="miter" fill-opacity="0" stroke-miterlimit="4" stroke="rgb(51,204,204)" stroke-opacity="1" stroke-width="16" d="M0 0"></path></g></g><g transform="matrix(1,0,0,1,158,470)" opacity="1" style="display: block;"><g opacity="1" transform="matrix(1,0,0,1,0,0)"><path stroke-linecap="round" stroke-linejoin="miter" fill-opacity="0" stroke-miterlimit="4" stroke="rgb(51,204,204)" stroke-opacity="1" stroke-width="16" d="M0 0"></path></g></g><g transform="matrix(1,0,0,1,48,362)" opacity="1" style="display: block;"><g opacity="1" transform="matrix(1,0,0,1,0,0)"><path stroke-linecap="round" stroke-linejoin="miter" fill-opacity="0" stroke-miterlimit="4" stroke="rgb(51,204,204)" stroke-opacity="1" stroke-width="16" d="M0 0"></path></g></g><g transform="matrix(1,0,0,1,310,396)" opacity="1" style="display: block;"><g opacity="1" transform="matrix(1,0,0,1,0,0)"><path stroke-linecap="round" stroke-linejoin="miter" fill-opacity="0" stroke-miterlimit="4" stroke="rgb(51,204,204)" stroke-opacity="1" stroke-width="16" d="M0 0"></path></g></g><g transform="matrix(1,0,0,1,144,254)" opacity="1" style="display: block;"><g opacity="1" transform="matrix(1,0,0,1,0,0)"><path stroke-linecap="round" stroke-linejoin="miter" fill-opacity="0" stroke-miterlimit="4" stroke="rgb(51,204,204)" stroke-opacity="1" stroke-width="16" d=" M150,-140 C150,-140 113.80899810791016,-140 76.29000091552734,-140"></path></g></g><g transform="matrix(1,0,0,1,286,390)" opacity="1" style="display: none;"><g opacity="1" transform="matrix(1,0,0,1,0,0)"><path stroke-linecap="round" stroke-linejoin="miter" fill-opacity="0" stroke-miterlimit="4" stroke="rgb(51,204,204)" stroke-opacity="1" stroke-width="16" d="M0 0"></path></g></g><g transform="matrix(1,0,0,1.0704200267791748,288,468)" opacity="1" style="display: block;"><g opacity="1" transform="matrix(1,0,0,1,0,0)"><path stroke-linecap="round" stroke-linejoin="miter" fill-opacity="0" stroke-miterlimit="4" stroke="rgb(51,204,204)" stroke-opacity="1" stroke-width="16" d=" M150,-140 C150,-140 95.85299682617188,-140 51.361000061035156,-140"></path></g></g><g transform="matrix(1,0,0,1.225350022315979,28,406)" opacity="1" style="display: block;"><g opacity="1" transform="matrix(1,0,0,1,0,0)"><path stroke-linecap="round" stroke-linejoin="miter" fill-opacity="0" stroke-miterlimit="4" stroke="rgb(51,204,204)" stroke-opacity="1" stroke-width="16" d=" M150,-140 C150,-140 128.1719970703125,-140 100.84500122070312,-140"></path></g></g></g></svg>