<svg xmlns="http://www.w3.org/2000/svg" xmlns:xlink="http://www.w3.org/1999/xlink" viewBox="0 0 500 500" width="500" height="500" preserveAspectRatio="xMidYMid meet" style="width: 100%; height: 100%; transform: translate3d(0px, 0px, 0px); content-visibility: visible;"><defs><clipPath id="__lottie_element_66"><rect width="500" height="500" x="0" y="0"></rect></clipPath><clipPath id="__lottie_element_76"><path d="M0,0 L500,0 L500,500 L0,500z"></path></clipPath></defs><g clip-path="url(#__lottie_element_66)"><g transform="matrix(1,0,0,1,63.447998046875,29.5679931640625)" opacity="1" style="display: block;"><g opacity="1" transform="matrix(1,0,0,1,154.69400024414062,196.94900512695312)"><path stroke-linecap="round" stroke-linejoin="round" fill-opacity="0" stroke="#fff" stroke-opacity="1" stroke-width="16" d=" M-100.69400024414062,-84.49500274658203 C-100.69400024414062,-84.49500274658203 -28.256000518798828,-156.93299865722656 -28.256000518798828,-156.93299865722656 C-28.256000518798828,-156.93299865722656 141.04800415039062,-155.94400024414062 141.04800415039062,-155.94400024414062 C154.3820037841797,-155.94400024414062 165.19400024414062,-145.13299560546875 165.19400024414062,-131.79800415039062 C165.19400024414062,-131.79800415039062 165.08599853515625,183.8090057373047 165.08599853515625,183.8090057373047 C165.08599853515625,197.14300537109375 154.2740020751953,207.9550018310547 140.94000244140625,207.9550018310547 C140.94000244140625,207.9550018310547 -76.65599822998047,206.96600341796875 -76.65599822998047,206.96600341796875 C-89.99099731445312,206.96600341796875 -100.802001953125,196.1540069580078 -100.802001953125,182.82000732421875 C-100.802001953125,182.82000732421875 -100.69400024414062,-84.49500274658203 -100.69400024414062,-84.49500274658203z"></path></g></g><g transform="matrix(1,0,0,1,67.19699096679688,34.066986083984375)" opacity="1" style="display: block;"><g opacity="1" transform="matrix(1,0,0,1,82.25599670410156,82.25499725341797)"><path stroke-linecap="butt" stroke-linejoin="miter" fill-opacity="0" stroke-miterlimit="10" stroke="#fff" stroke-opacity="1" stroke-width="16" d=" M-32.255001068115234,42.43199920654297 C-32.255001068115234,42.43199920654297 32.11000061035156,42.43199920654297 32.11000061035156,42.43199920654297 C45.44499969482422,42.43199920654297 56.25600051879883,31.621000289916992 56.25600051879883,18.285999298095703 C56.25600051879883,18.285999298095703 56.20899963378906,-46.57899856567383 56.20899963378906,-46.57899856567383"></path></g></g><g clip-path="url(#__lottie_element_76)" transform="matrix(-1,0,0,-1,500,572.041015625)" opacity="1" style="display: block;"><g transform="matrix(1,0,0,1,241.8100128173828,251.18601989746094)" opacity="1" style="display: block;"><g opacity="1" transform="matrix(1,0,0,1,0,0)"><path stroke-linecap="round" stroke-linejoin="round" fill-opacity="0" stroke="#1d8443" stroke-opacity="1" stroke-width="16" d=" M8,116.6050033569336 C8,116.6050033569336 8,8 8,8"></path></g><g opacity="1" transform="matrix(1,0,0,1,-17.101999282836914,32.1349983215332)"><path stroke-linecap="round" stroke-linejoin="round" fill-opacity="0" stroke="#1d8443" stroke-opacity="1" stroke-width="16" d=" M-23.135000228881836,24.135000228881836 C-23.135000228881836,24.135000228881836 25.135000228881836,-24.135000228881836 25.135000228881836,-24.135000228881836"></path></g><g opacity="1" transform="matrix(1,0,0,1,32.13399887084961,32.1349983215332)"><path stroke-linecap="round" stroke-linejoin="round" fill-opacity="0" stroke="#1d8443" stroke-opacity="1" stroke-width="16" d=" M-24.134000778198242,-24.135000228881836 C-24.134000778198242,-24.135000228881836 24.134000778198242,24.135000228881836 24.134000778198242,24.135000228881836"></path></g></g><g transform="matrix(1,0,0,1,193.54100036621094,202.91799926757812)" opacity="1" style="display: block;"><g opacity="1" transform="matrix(1,0,0,1,0,0)"><path stroke-linecap="round" stroke-linejoin="round" fill-opacity="0" stroke="#fff" stroke-opacity="1" stroke-width="16" d=" M8,8 C8,8 104.53800201416016,8 104.53800201416016,8"></path></g></g><g transform="matrix(1,0,0,1,193.54100036621094,202.91799926757812)" opacity="1" style="display: none;"><g opacity="1" transform="matrix(1,0,0,1,0,0)"><path stroke-linecap="round" stroke-linejoin="round" fill-opacity="0" stroke="#1d8443" stroke-opacity="1" stroke-width="16" d=" M106.28251647949219,8.12285041809082 C106.28251647949219,8.12285041809082 106.98692321777344,7.923177242279053 106.98692321777344,7.923177242279053"></path></g></g></g></g></svg>