<svg xmlns="http://www.w3.org/2000/svg" xmlns:xlink="http://www.w3.org/1999/xlink" viewBox="0 0 500 500" width="500" height="500" preserveAspectRatio="xMidYMid meet" style="width: 100%; height: 100%; transform: translate3d(0px, 0px, 0px); content-visibility: visible;"><defs><clipPath id="__lottie_element_85"><rect width="500" height="500" x="0" y="0"></rect></clipPath><g id="__lottie_element_91"><g transform="matrix(0.9964955449104309,-0.08364586532115936,0.08364586532115936,0.9964955449104309,237.47259521484375,279.2786560058594)" opacity="1" style="display: block;"><path fill="rgb(255,0,0)" fill-opacity="1" d=" M-178.7515869140625,-59.54381561279297 C-183.10337829589844,-67.48310852050781 -180.19442749023438,-77.44612884521484 -172.25514221191406,-81.79792022705078 C-172.25514221191406,-81.79792022705078 -172.25514221191406,-81.79792022705078 -172.25514221191406,-81.79792022705078 C-164.3158416748047,-86.14971160888672 -154.3528289794922,-83.24142456054688 -150.00103759765625,-75.30213165283203 C-150.00103759765625,-75.30213165283203 -91.17932891845703,10.8992338180542 -91.17932891845703,10.8992338180542 C-91.17932891845703,10.8992338180542 -129.91392517089844,-93.97093963623047 -129.91392517089844,-93.97093963623047 C-132.24795532226562,-102.71858978271484 -127.04960632324219,-111.70211029052734 -118.30195617675781,-114.03614044189453 C-118.30195617675781,-114.03614044189453 -118.30195617675781,-114.03614044189453 -118.30195617675781,-114.03614044189453 C-109.55431365966797,-116.37017059326172 -100.57079315185547,-111.17115783691406 -98.23676300048828,-102.42351531982422 C-98.23676300048828,-102.42351531982422 -58.75204086303711,4.558975696563721 -58.75204086303711,4.558975696563721 C-58.75204086303711,4.558975696563721 -71.33869934082031,-87.26182556152344 -71.33869934082031,-87.26182556152344 C-71.52088165283203,-96.31370544433594 -64.3306884765625,-103.7984390258789 -55.278812408447266,-103.98062133789062 C-55.278812408447266,-103.98062133789062 -55.278812408447266,-103.98062133789062 -55.278812408447266,-103.98062133789062 C-46.22693634033203,-104.16280364990234 -38.74153137207031,-96.97327423095703 -38.559349060058594,-87.92139434814453 C-38.559349060058594,-87.92139434814453 -25.682510375976562,4.752325057983398 -25.682510375976562,4.752325057983398 C-25.682510375976562,4.752325057983398 -22.834455490112305,-62.06333541870117 -22.834455490112305,-62.06333541870117 C-21.488908767700195,-69.78093719482422 -14.142325401306152,-74.94632720947266 -6.424727916717529,-73.60078430175781 C-6.424727916717529,-73.60078430175781 -6.424727916717529,-73.60078430175781 -6.424727916717529,-73.60078430175781 C1.2928693294525146,-72.25523376464844 6.45759916305542,-64.90898895263672 5.1120524406433105,-57.19139099121094 C5.1120524406433105,-57.19139099121094 5.111285209655762,9.56993579864502 5.111285209655762,9.56993579864502 C5.111285209655762,9.56993579864502 18.292503356933594,85.24250793457031 -2.108016014099121,114.24881744384766 C-6.126582622528076,119.96293640136719 -7.785999774932861,136.80299377441406 -7.785999774932861,143.85499572753906 C-7.785999774932861,143.85499572753906 -7.785999774932861,171.5 -7.785999774932861,171.5 C-7.785999774932861,171.5 -100.53900146484375,171.5 -100.53900146484375,171.5 C-100.53900146484375,171.5 -100.53900146484375,145.41099548339844 -100.53900146484375,145.41099548339844 C-100.53900146484375,133.5229949951172 -104.75118255615234,131.0572509765625 -113.99978637695312,123.76721954345703 C-142.20262145996094,101.53710174560547 -182.51829528808594,45.400657653808594 -196.11492919921875,27.685989379882812 C-198.27450561523438,24.873008728027344 -197.51136779785156,20.81216049194336 -194.4815216064453,18.968170166015625 C-194.4815216064453,18.968170166015625 -194.4815216064453,18.968170166015625 -194.4815216064453,18.968170166015625 C-185.53604125976562,13.523995399475098 -174.1263885498047,14.334178924560547 -166.04104614257812,20.989511489868164 C-166.04104614257812,20.989511489868164 -133.41819763183594,44.86642837524414 -133.41819763183594,44.86642837524414 C-127.05683135986328,43.31275177001953 -114.4481430053711,43.89716339111328 -114.4481430053711,43.89716339111328 C-114.4481430053711,43.89716339111328 -178.7515869140625,-59.54381561279297 -178.7515869140625,-59.54381561279297z"></path><g opacity="1" transform="matrix(1,0,0,1,0,0)"><path stroke-linecap="round" stroke-linejoin="round" fill-opacity="0" stroke="rgb(0,0,0)" stroke-opacity="1" stroke-width="16" d=" M-178.7515869140625,-59.54381561279297 C-183.10337829589844,-67.48310852050781 -180.19442749023438,-77.44612884521484 -172.25514221191406,-81.79792022705078 C-172.25514221191406,-81.79792022705078 -172.25514221191406,-81.79792022705078 -172.25514221191406,-81.79792022705078 C-164.3158416748047,-86.14971160888672 -154.3528289794922,-83.24142456054688 -150.00103759765625,-75.30213165283203 C-150.00103759765625,-75.30213165283203 -91.17932891845703,10.8992338180542 -91.17932891845703,10.8992338180542 C-91.17932891845703,10.8992338180542 -129.91392517089844,-93.97093963623047 -129.91392517089844,-93.97093963623047 C-132.24795532226562,-102.71858978271484 -127.04960632324219,-111.70211029052734 -118.30195617675781,-114.03614044189453 C-118.30195617675781,-114.03614044189453 -118.30195617675781,-114.03614044189453 -118.30195617675781,-114.03614044189453 C-109.55431365966797,-116.37017059326172 -100.57079315185547,-111.17115783691406 -98.23676300048828,-102.42351531982422 C-98.23676300048828,-102.42351531982422 -58.75204086303711,4.558975696563721 -58.75204086303711,4.558975696563721 C-58.75204086303711,4.558975696563721 -71.33869934082031,-87.26182556152344 -71.33869934082031,-87.26182556152344 C-71.52088165283203,-96.31370544433594 -64.3306884765625,-103.7984390258789 -55.278812408447266,-103.98062133789062 C-55.278812408447266,-103.98062133789062 -55.278812408447266,-103.98062133789062 -55.278812408447266,-103.98062133789062 C-46.22693634033203,-104.16280364990234 -38.74153137207031,-96.97327423095703 -38.559349060058594,-87.92139434814453 C-38.559349060058594,-87.92139434814453 -25.682510375976562,4.752325057983398 -25.682510375976562,4.752325057983398 C-25.682510375976562,4.752325057983398 -22.834455490112305,-62.06333541870117 -22.834455490112305,-62.06333541870117 C-21.488908767700195,-69.78093719482422 -14.142325401306152,-74.94632720947266 -6.424727916717529,-73.60078430175781 C-6.424727916717529,-73.60078430175781 -6.424727916717529,-73.60078430175781 -6.424727916717529,-73.60078430175781 C1.2928693294525146,-72.25523376464844 6.45759916305542,-64.90898895263672 5.1120524406433105,-57.19139099121094 C5.1120524406433105,-57.19139099121094 5.111285209655762,9.56993579864502 5.111285209655762,9.56993579864502 C5.111285209655762,9.56993579864502 18.292503356933594,85.24250793457031 -2.108016014099121,114.24881744384766 C-6.126582622528076,119.96293640136719 -7.785999774932861,136.80299377441406 -7.785999774932861,143.85499572753906 C-7.785999774932861,143.85499572753906 -7.785999774932861,171.5 -7.785999774932861,171.5 C-7.785999774932861,171.5 -100.53900146484375,171.5 -100.53900146484375,171.5 C-100.53900146484375,171.5 -100.53900146484375,145.41099548339844 -100.53900146484375,145.41099548339844 C-100.53900146484375,133.5229949951172 -104.75118255615234,131.0572509765625 -113.99978637695312,123.76721954345703 C-142.20262145996094,101.53710174560547 -182.51829528808594,45.400657653808594 -196.11492919921875,27.685989379882812 C-198.27450561523438,24.873008728027344 -197.51136779785156,20.81216049194336 -194.4815216064453,18.968170166015625 C-194.4815216064453,18.968170166015625 -194.4815216064453,18.968170166015625 -194.4815216064453,18.968170166015625 C-185.53604125976562,13.523995399475098 -174.1263885498047,14.334178924560547 -166.04104614257812,20.989511489868164 C-166.04104614257812,20.989511489868164 -133.41819763183594,44.86642837524414 -133.41819763183594,44.86642837524414 C-127.05683135986328,43.31275177001953 -114.4481430053711,43.89716339111328 -114.4481430053711,43.89716339111328 C-114.4481430053711,43.89716339111328 -178.7515869140625,-59.54381561279297 -178.7515869140625,-59.54381561279297z"></path></g></g></g><filter id="__lottie_element_103" filterUnits="objectBoundingBox" x="0%" y="0%" width="100%" height="100%"><feComponentTransfer in="SourceGraphic"><feFuncA type="table" tableValues="1.0 0.0"></feFuncA></feComponentTransfer></filter><mask id="__lottie_element_91_2" mask-type="alpha"><g filter="url(#__lottie_element_103)"><rect width="500" height="500" x="0" y="0" fill="#ffffff" opacity="0"></rect><use xlink:href="#__lottie_element_91"></use></g></mask></defs><g clip-path="url(#__lottie_element_85)"><g mask="url(#__lottie_element_91_2)" style="display: block;"><g transform="matrix(0.9852476119995117,0.17113494873046875,-0.17113494873046875,0.9852476119995117,253.36004638671875,273.94830322265625)" opacity="1"><g opacity="1" transform="matrix(1,0,0,1,0,0)"><path stroke-linecap="round" stroke-linejoin="round" fill-opacity="0" stroke="rgb(51,204,204)" stroke-opacity="1" stroke-width="16" d=" M85.8251724243164,66.32736206054688 C85.8251724243164,66.32736206054688 96.78345489501953,42.194828033447266 123.75392150878906,42.44725036621094"></path></g><g opacity="1" transform="matrix(1,0,0,1,0,0)"><path stroke-linecap="round" stroke-linejoin="round" fill-opacity="0" stroke="rgb(51,204,204)" stroke-opacity="1" stroke-width="16" d=" M200.29043579101562,-47.997528076171875 C205.45175170898438,-55.466331481933594 203.58050537109375,-65.70468139648438 196.1116943359375,-70.86601257324219 C196.1116943359375,-70.86601257324219 196.1116943359375,-70.86601257324219 196.1116943359375,-70.86601257324219 C188.6428985595703,-76.02733612060547 178.40536499023438,-74.15689849853516 173.24403381347656,-66.68809509277344 C173.24403381347656,-66.68809509277344 105.81989288330078,12.783415794372559 105.81989288330078,12.783415794372559 C105.81989288330078,12.783415794372559 157.0277862548828,-85.73048400878906 157.0277862548828,-85.73048400878906 C160.260498046875,-94.2144546508789 156.00344848632812,-103.71073913574219 147.5194854736328,-106.94345092773438 C147.5194854736328,-106.94345092773438 147.5194854736328,-106.94345092773438 147.5194854736328,-106.94345092773438 C139.03550720214844,-110.1761703491211 129.53823852539062,-105.91993713378906 126.3055191040039,-97.43596649169922 C126.3055191040039,-97.43596649169922 73.5550308227539,5.1442389488220215 73.5550308227539,5.1442389488220215 C73.5550308227539,5.1442389488220215 97.91004180908203,-85.09414672851562 97.91004180908203,-85.09414672851562 C99.02725982666016,-94.1039047241211 92.62980651855469,-102.31354522705078 83.62005615234375,-103.43077087402344 C83.62005615234375,-103.43077087402344 83.62005615234375,-103.43077087402344 83.62005615234375,-103.43077087402344 C74.61030578613281,-104.54798889160156 66.40129852294922,-98.15135955810547 65.2840805053711,-89.14160919189453 C65.2840805053711,-89.14160919189453 40.387420654296875,4.030932903289795 40.387420654296875,4.030932903289795 C40.387420654296875,4.030932903289795 46.925682067871094,-64.97672271728516 46.925682067871094,-64.97672271728516 C46.381900787353516,-72.81298828125 39.588008880615234,-78.7252197265625 31.75174331665039,-78.18061828613281 C31.75174331665039,-78.18061828613281 31.75174331665039,-78.18061828613281 31.75174331665039,-78.18061828613281 C23.915477752685547,-77.63683319091797 18.003883361816406,-70.84212493896484 18.548484802246094,-63.005859375 C18.548484802246094,-63.005859375 9.318191528320312,7.64349889755249 9.318191528320312,7.64349889755249 C9.318191528320312,7.64349889755249 -1.3920187950134277,74.86441040039062 17.917633056640625,104.75667572021484 C21.721235275268555,110.6453857421875 15.916000366210938,127.56300354003906 15.916000366210938,134.61500549316406 C15.916000366210938,134.61500549316406 15.916000366210938,171.5 15.916000366210938,171.5 C15.916000366210938,171.5 105.1719970703125,171.5 105.1719970703125,171.5 C105.1719970703125,171.5 105.1719970703125,131.6999969482422 105.1719970703125,131.6999969482422 C105.1719970703125,119.81199645996094 117.81748962402344,120.544677734375 127.37992095947266,113.60031127929688 C156.53939819335938,92.42464447021484 197.34945678710938,55.36393356323242 211.91563415527344,38.111412048339844 C214.22927856445312,35.3718376159668 213.64935302734375,31.2342586517334 210.67601013183594,29.229415893554688 C210.67601013183594,29.229415893554688 210.67601013183594,29.229415893554688 210.67601013183594,29.229415893554688 C201.89776611328125,23.309803009033203 190.3353271484375,23.592599868774414 181.85623168945312,29.934053421020508 C181.85623168945312,29.934053421020508 139.11447143554688,47.42240905761719 139.11447143554688,47.42240905761719 C132.7967071533203,45.61298370361328 124.52472686767578,43.48991394042969 124.52472686767578,43.48991394042969 C124.52472686767578,43.48991394042969 200.29043579101562,-47.997528076171875 200.29043579101562,-47.997528076171875z"></path></g><g opacity="1" transform="matrix(1,0,0,1,49,27)"><path stroke-linecap="butt" stroke-linejoin="miter" fill-opacity="0" stroke-miterlimit="4" stroke="rgb(51,204,204)" stroke-opacity="0" stroke-width="16" d=" M331,-349 C331,-349 331,349 331,349 C331,349 -331,349 -331,349 C-331,349 -331,-349 -331,-349 C-331,-349 331,-349 331,-349z"></path></g></g></g><g transform="matrix(0.9964955449104309,-0.08364586532115936,0.08364586532115936,0.9964955449104309,237.47259521484375,279.2786560058594)" opacity="1" style="display: block;"><g opacity="1" transform="matrix(1,0,0,1,0,0)"><path stroke-linecap="round" stroke-linejoin="round" fill-opacity="0" stroke="rgb(0,0,0)" stroke-opacity="1" stroke-width="16" d=" M-178.7515869140625,-59.54381561279297 C-183.10337829589844,-67.48310852050781 -180.19442749023438,-77.44612884521484 -172.25514221191406,-81.79792022705078 C-172.25514221191406,-81.79792022705078 -172.25514221191406,-81.79792022705078 -172.25514221191406,-81.79792022705078 C-164.3158416748047,-86.14971160888672 -154.3528289794922,-83.24142456054688 -150.00103759765625,-75.30213165283203 C-150.00103759765625,-75.30213165283203 -91.17932891845703,10.8992338180542 -91.17932891845703,10.8992338180542 C-91.17932891845703,10.8992338180542 -129.91392517089844,-93.97093963623047 -129.91392517089844,-93.97093963623047 C-132.24795532226562,-102.71858978271484 -127.04960632324219,-111.70211029052734 -118.30195617675781,-114.03614044189453 C-118.30195617675781,-114.03614044189453 -118.30195617675781,-114.03614044189453 -118.30195617675781,-114.03614044189453 C-109.55431365966797,-116.37017059326172 -100.57079315185547,-111.17115783691406 -98.23676300048828,-102.42351531982422 C-98.23676300048828,-102.42351531982422 -58.75204086303711,4.558975696563721 -58.75204086303711,4.558975696563721 C-58.75204086303711,4.558975696563721 -71.33869934082031,-87.26182556152344 -71.33869934082031,-87.26182556152344 C-71.52088165283203,-96.31370544433594 -64.3306884765625,-103.7984390258789 -55.278812408447266,-103.98062133789062 C-55.278812408447266,-103.98062133789062 -55.278812408447266,-103.98062133789062 -55.278812408447266,-103.98062133789062 C-46.22693634033203,-104.16280364990234 -38.74153137207031,-96.97327423095703 -38.559349060058594,-87.92139434814453 C-38.559349060058594,-87.92139434814453 -25.682510375976562,4.752325057983398 -25.682510375976562,4.752325057983398 C-25.682510375976562,4.752325057983398 -22.834455490112305,-62.06333541870117 -22.834455490112305,-62.06333541870117 C-21.488908767700195,-69.78093719482422 -14.142325401306152,-74.94632720947266 -6.424727916717529,-73.60078430175781 C-6.424727916717529,-73.60078430175781 -6.424727916717529,-73.60078430175781 -6.424727916717529,-73.60078430175781 C1.2928693294525146,-72.25523376464844 6.45759916305542,-64.90898895263672 5.1120524406433105,-57.19139099121094 C5.1120524406433105,-57.19139099121094 5.111285209655762,9.56993579864502 5.111285209655762,9.56993579864502 C5.111285209655762,9.56993579864502 18.292503356933594,85.24250793457031 -2.108016014099121,114.24881744384766 C-6.126582622528076,119.96293640136719 -7.785999774932861,136.80299377441406 -7.785999774932861,143.85499572753906 C-7.785999774932861,143.85499572753906 -7.785999774932861,171.5 -7.785999774932861,171.5 C-7.785999774932861,171.5 -100.53900146484375,171.5 -100.53900146484375,171.5 C-100.53900146484375,171.5 -100.53900146484375,145.41099548339844 -100.53900146484375,145.41099548339844 C-100.53900146484375,133.5229949951172 -104.75118255615234,131.0572509765625 -113.99978637695312,123.76721954345703 C-142.20262145996094,101.53710174560547 -182.51829528808594,45.400657653808594 -196.11492919921875,27.685989379882812 C-198.27450561523438,24.873008728027344 -197.51136779785156,20.81216049194336 -194.4815216064453,18.968170166015625 C-194.4815216064453,18.968170166015625 -194.4815216064453,18.968170166015625 -194.4815216064453,18.968170166015625 C-185.53604125976562,13.523995399475098 -174.1263885498047,14.334178924560547 -166.04104614257812,20.989511489868164 C-166.04104614257812,20.989511489868164 -133.41819763183594,44.86642837524414 -133.41819763183594,44.86642837524414 C-127.05683135986328,43.31275177001953 -114.4481430053711,43.89716339111328 -114.4481430053711,43.89716339111328 C-114.4481430053711,43.89716339111328 -178.7515869140625,-59.54381561279297 -178.7515869140625,-59.54381561279297z"></path></g></g><g transform="matrix(1,0,0,1,250,250)" opacity="1" style="display: block;"><g opacity="1" transform="matrix(1,0,0,1,0,0)"><path stroke-linecap="round" stroke-linejoin="round" fill-opacity="0" stroke="rgb(51,204,204)" stroke-opacity="1" stroke-width="16" d="M0 0"></path></g><g opacity="1" transform="matrix(1,0,0,1,0,0)"><path stroke-linecap="round" stroke-linejoin="round" fill-opacity="0" stroke="rgb(51,204,204)" stroke-opacity="1" stroke-width="16" d="M0 0"></path></g><g opacity="1" transform="matrix(1,0,0,1,0,0)"><path stroke-linecap="round" stroke-linejoin="round" fill-opacity="0" stroke="rgb(51,204,204)" stroke-opacity="1" stroke-width="16" d="M0 0"></path></g></g><g transform="matrix(1,0,0,1,250,250)" opacity="1" style="display: block;"><g opacity="1" transform="matrix(1,0,0,1,0,0)"><path stroke-linecap="round" stroke-linejoin="round" fill-opacity="0" stroke="rgb(51,204,204)" stroke-opacity="1" stroke-width="16" d="M0 0"></path></g><g opacity="1" transform="matrix(1,0,0,1,0,0)"><path stroke-linecap="round" stroke-linejoin="round" fill-opacity="0" stroke="rgb(51,204,204)" stroke-opacity="1" stroke-width="16" d="M0 0"></path></g><g opacity="1" transform="matrix(1,0,0,1,0,0)"><path stroke-linecap="round" stroke-linejoin="round" fill-opacity="0" stroke="rgb(51,204,204)" stroke-opacity="1" stroke-width="16" d="M0 0"></path></g></g></g></svg>