<?xml version="1.0" encoding="utf-8"?>
<svg id="master-artboard" viewBox="0 0 530 205" version="1.1" xmlns="http://www.w3.org/2000/svg" x="0px" y="0px" style="enable-background:new 0 0 1400 980;" width="530px" height="205px" xmlns:xlink="http://www.w3.org/1999/xlink"><defs><style id="ee-google-fonts">@import url(https://fonts.googleapis.com/css?family=Fjalla+One:400|Roboto:100,100italic,300,300italic,400,400italic,500,500italic,700,700italic,900,900italic);</style><linearGradient id="linear-gradient" x1="445.85" y1="91.61" x2="516.37" y2="91.61" gradientUnits="userSpaceOnUse"><stop offset="0" stop-color="#9b5ffb"/><stop offset="1" stop-color="#654bd6"/></linearGradient><linearGradient id="linear-gradient-2" x1="437.39" y1="78.4" x2="508.66" y2="116.09" gradientUnits="userSpaceOnUse"><stop offset="0" stop-color="#020202" stop-opacity="0"/><stop offset="0.4" stop-color="#020202" stop-opacity="0.05"/><stop offset="1" stop-color="#020202" stop-opacity="0.2"/></linearGradient><linearGradient id="linear-gradient-3" x1="445.69" y1="145.77" x2="546.12" y2="145.77" xlink:href="#linear-gradient"/><linearGradient id="gradient-1" x1="445.85" y1="91.61" x2="516.37" y2="91.61" gradientUnits="userSpaceOnUse"><stop offset="0" stop-color="#9b5ffb"/><stop offset="1" stop-color="#654bd6"/></linearGradient><linearGradient id="gradient-2" x1="437.39" y1="78.4" x2="508.66" y2="116.09" gradientUnits="userSpaceOnUse"><stop offset="0" stop-color="#020202" stop-opacity="0"/><stop offset="0.4" stop-color="#020202" stop-opacity="0.05"/><stop offset="1" stop-color="#020202" stop-opacity="0.2"/></linearGradient><linearGradient id="gradient-3" x1="445.69" y1="145.77" x2="546.12" y2="145.77" xlink:href="#gradient-1"/></defs>

































































































<rect id="ee-background" x="0" y="0" width="530" height="205" style="fill: white; fill-opacity: 0; pointer-events: none;"/><g transform="matrix(1.2682307958602905, 0, 0, 1.2682307958602905, -171.0099276304245, -60.344841003417955)"><title>dash</title><path class="cls-1" d="M171.3,169.25H140.59V86.17h30.67q12.69,0,21.88,5a34.27,34.27,0,0,1,14.18,14.29q5,9.3,5,22.25t-5,22.31a34.07,34.07,0,0,1-14.18,14.3Q184,169.25,171.3,169.25Zm-10.63-17.12h9.86a26.72,26.72,0,0,0,11.82-2.37A15.66,15.66,0,0,0,189.7,142c1.66-3.59,2.49-8.36,2.49-14.34s-.84-10.75-2.51-14.3a15.64,15.64,0,0,0-7.41-7.71,27.44,27.44,0,0,0-12-2.37h-9.57Z" style="fill: rgb(31, 36, 71);"/><path class="cls-1" d="M237,170.31a26.22,26.22,0,0,1-10.57-2,16.17,16.17,0,0,1-7.26-6.09A18.41,18.41,0,0,1,216.5,152a19,19,0,0,1,1.83-8.76,15.64,15.64,0,0,1,5-5.81,24.24,24.24,0,0,1,7.38-3.38,49.33,49.33,0,0,1,8.93-1.56c3.54-.33,6.4-.67,8.56-1a12.15,12.15,0,0,0,4.73-1.58,3.39,3.39,0,0,0,1.48-2.94v-.21a5.79,5.79,0,0,0-2.15-4.82,9.08,9.08,0,0,0-5.8-1.71,10.64,10.64,0,0,0-6.33,1.71,7.5,7.5,0,0,0-3,4.7l-18.29-.65a21.66,21.66,0,0,1,4.2-10.16,22.6,22.6,0,0,1,9.33-7.06,35.8,35.8,0,0,1,14.3-2.57,40.62,40.62,0,0,1,11,1.4,27.87,27.87,0,0,1,8.77,4,18.81,18.81,0,0,1,5.78,6.51,18.56,18.56,0,0,1,2,8.81v42.35H255.57v-8.68h-.48a17.93,17.93,0,0,1-4.24,5.35,17.29,17.29,0,0,1-6,3.29A25.85,25.85,0,0,1,237,170.31Zm6.13-13A12.75,12.75,0,0,0,248.9,156a10.67,10.67,0,0,0,4.12-3.6,9.35,9.35,0,0,0,1.54-5.33v-5.92a12.33,12.33,0,0,1-2.05.81c-.8.24-1.67.47-2.62.69s-1.92.4-2.92.57-2,.31-2.88.44a17.79,17.79,0,0,0-4.76,1.38,7.39,7.39,0,0,0-3,2.42,5.94,5.94,0,0,0-1,3.51,5.48,5.48,0,0,0,2.21,4.7A9.26,9.26,0,0,0,243.12,157.32Z" style="fill: rgb(31, 36, 71);"/><path class="cls-1" d="M336.16,126l-18.22.49A6.92,6.92,0,0,0,316.4,123a8.63,8.63,0,0,0-3.27-2.39,13,13,0,0,0-10.5.51,4.09,4.09,0,0,0-2.38,3.73,4,4,0,0,0,1.48,3.16,12.39,12.39,0,0,0,5.46,2.15l12,2.27q9.33,1.78,13.89,5.93a14.18,14.18,0,0,1,4.61,10.95,17.65,17.65,0,0,1-3.8,11.16,24.25,24.25,0,0,1-10.24,7.36,39.57,39.57,0,0,1-14.85,2.62q-13.35,0-21-5.5A20.35,20.35,0,0,1,279,150.18l19.6-.48a7.6,7.6,0,0,0,3.37,5.19,12.38,12.38,0,0,0,6.93,1.78,12.12,12.12,0,0,0,6.21-1.41,4.38,4.38,0,0,0,2.44-3.78,4.08,4.08,0,0,0-1.87-3.39,15.11,15.11,0,0,0-5.72-2L299.08,144q-9.37-1.71-14-6.31A15.79,15.79,0,0,1,280.58,126a17,17,0,0,1,3.32-10.69,21,21,0,0,1,9.58-6.79,41.24,41.24,0,0,1,14.64-2.35q12.66,0,20,5.29A19.11,19.11,0,0,1,336.16,126Z" style="fill: rgb(31, 36, 71);"/><path class="cls-1" d="M362.7,133.71v35.54H342.86V86.17h19.19v32.21h.69a18.05,18.05,0,0,1,6.92-9,20.61,20.61,0,0,1,11.79-3.24,21.89,21.89,0,0,1,11.44,2.9,19.79,19.79,0,0,1,7.56,8.17,26.36,26.36,0,0,1,2.66,12.33v39.72H383.27V133.43q0-5.19-2.6-8.12a9.49,9.49,0,0,0-7.42-2.92,11,11,0,0,0-5.5,1.36,9.4,9.4,0,0,0-3.69,3.88A13.28,13.28,0,0,0,362.7,133.71Z" style="fill: rgb(31, 36, 71);"/><path class="cls-2" d="M510.2,109l-.06,0-5.76,3.21-5,2.78L474.6,128.9l-.47-.26-16-8.91A24,24,0,0,1,449,86.91l33.6,18.76,3.94,2.2a2.44,2.44,0,0,0,3.23-.82,2.41,2.41,0,0,0,.39-1.31,2.44,2.44,0,0,0-1.25-2.12l-2.81-1.57L459.34,87.13a24,24,0,0,1-9.2-32.82l57.22,32,2.78,1.55A12.16,12.16,0,0,1,510.2,109Z" style="fill: url('#gradient-1');"/><path class="cls-3" d="M510.2,109l-.06,0-5.76,3.21-5,2.78L474.6,128.9l-.47-.26-16-8.91A24,24,0,0,1,449,86.91l33.6,18.76,3.94,2.2a2.44,2.44,0,0,0,3.23-.82,2.41,2.41,0,0,0,.39-1.31,2.44,2.44,0,0,0-1.25-2.12l-2.81-1.57L459.34,87.13a24,24,0,0,1-9.2-32.82l57.22,32,2.78,1.55A12.16,12.16,0,0,1,510.2,109Z" style="fill: url('#gradient-2');"/><path class="cls-4" d="M546.12,128.82a36,36,0,0,1-16.87,30.5l-.09.05L526,161.12l-76.29,42.6a24,24,0,0,1,9.2-32.82l27.24-15.21,2.6-1.45a2.43,2.43,0,0,0-1.19-4.55,2.46,2.46,0,0,0-1.19.31l-3.73,2.09L448.81,171a24,24,0,0,1,9.2-32.81l16.12-9,.47-.26,24.79-13.84,5-2.78,5.76-3.21.06,0a12.16,12.16,0,0,0-.06-21.22l14.16,7.91h0l4.83,2.7,1.68.93A36,36,0,0,1,546.12,128.82Z" style="fill: url('#gradient-3');"/></g></svg>